<svg viewBox="57.244 0.627 36.305 35.612" height="36px">
	<path d="M 58.419 16.547 L 58.244 16.546 C 58.244 16.547 58.244 16.547 58.244 16.547 C 58.244 16.568 58.245 16.589 58.245 16.609 C 58.3 16.589 58.359 16.568 58.419 16.547 Z M 58.88 16.355 C 58.88 16.355 58.88 16.355 58.881 16.356 C 58.881 16.356 58.881 16.355 58.88 16.355 Z M 59.025 17.079 C 59.097 17.265 59.182 17.393 59.327 17.53 C 59.465 17.675 59.594 17.755 59.779 17.832 C 59.963 17.908 60.112 17.942 60.312 17.937 L 69.155 17.937 L 66.887 15.157 L 60.312 15.157 C 59.906 15.138 59.601 15.264 59.327 15.564 C 59.027 15.837 58.9 16.141 58.919 16.547 L 58.907 16.547 C 58.932 16.722 58.975 16.967 59.025 17.079 Z M 83.205 29.809 C 83.323 29.954 83.451 30.217 83.451 30.402 C 83.451 30.588 83.323 30.851 83.205 30.995 C 83.06 31.113 82.797 31.222 82.612 31.241 L 65.857 31.241 C 64.9 31.226 63.896 30.863 63.152 30.262 C 62.426 29.639 61.887 28.717 61.7 27.779 L 60.196 19.614 L 60.312 19.614 C 59.535 19.595 58.692 19.265 58.143 18.716 C 57.594 18.167 57.244 17.323 57.244 16.547 C 57.244 15.77 57.594 14.927 58.143 14.378 C 58.692 13.828 59.535 13.498 60.312 13.479 L 71.901 13.479 L 71.901 3.624 C 71.933 2.861 72.281 2.05 72.812 1.502 C 73.369 0.98 74.186 0.627 74.949 0.627 C 75.712 0.627 76.529 0.98 77.086 1.502 C 77.617 2.05 77.965 2.869 77.997 3.632 L 77.997 13.48 L 89.582 13.48 C 90.359 13.499 91.202 13.829 91.752 14.378 C 92.301 14.927 92.65 15.771 92.65 16.547 C 92.65 17.324 92.287 18.154 91.752 18.717 C 91.217 19.226 90.441 19.561 89.699 19.61 L 89.774 19.206 L 89.699 19.61 C 89.66 19.612 89.621 19.614 89.582 19.615 L 89.698 19.615 L 89.327 21.631 C 89.282 21.789 89.155 22.006 89.039 22.123 C 88.903 22.216 88.668 22.302 88.504 22.317 C 88.458 22.316 88.394 22.31 88.347 22.302 C 88.257 22.28 88.125 22.233 88.046 22.182 C 87.968 22.132 87.868 22.028 87.811 21.954 C 87.762 21.874 87.705 21.742 87.681 21.652 C 87.667 21.56 87.665 21.419 87.677 21.326 L 87.992 19.615 L 88.014 19.615 C 87.829 19.596 87.552 19.501 87.421 19.369 C 87.29 19.238 87.175 18.962 87.175 18.776 C 87.175 18.59 87.304 18.327 87.421 18.183 C 87.566 18.065 87.829 17.956 88.014 17.937 L 89.594 17.937 C 89.796 17.946 89.947 17.914 90.135 17.839 C 90.322 17.765 90.451 17.681 90.595 17.54 C 90.739 17.398 90.83 17.274 90.904 17.085 C 90.986 16.901 91.012 16.749 91.012 16.547 C 91.012 16.345 90.986 16.193 90.904 16.009 C 90.83 15.82 90.739 15.696 90.595 15.554 C 90.451 15.413 90.324 15.325 90.135 15.255 C 89.949 15.176 89.786 15.148 89.585 15.157 L 83.009 15.157 L 80.741 17.936 L 80.518 17.936 C 80.704 17.955 80.966 18.064 81.111 18.182 C 81.229 18.327 81.357 18.59 81.357 18.775 C 81.357 18.961 81.229 19.224 81.111 19.368 C 80.967 19.486 80.704 19.595 80.518 19.614 L 79.372 19.614 L 77.057 22.453 C 76.809 22.747 76.462 23.025 76.115 23.19 C 75.768 23.355 75.333 23.453 74.948 23.453 C 74.564 23.453 74.131 23.349 73.782 23.19 C 73.437 23.02 73.088 22.746 72.84 22.453 L 70.524 19.614 L 61.903 19.614 L 62.231 21.399 L 68.477 21.399 C 68.574 21.4 68.719 21.423 68.811 21.452 C 68.899 21.49 69.023 21.568 69.096 21.631 C 69.163 21.701 69.246 21.822 69.288 21.907 C 69.321 21.998 69.356 22.141 69.356 22.237 C 69.356 22.333 69.321 22.477 69.288 22.568 C 69.246 22.654 69.162 22.773 69.096 22.844 C 69.023 22.907 68.899 22.984 68.811 23.023 C 68.719 23.052 68.597 23.075 68.501 23.076 L 62.54 23.076 L 63.09 26.065 L 71.751 26.065 C 71.847 26.066 71.992 26.089 72.083 26.118 C 72.172 26.156 72.296 26.234 72.369 26.297 C 72.435 26.367 72.519 26.488 72.561 26.574 C 72.594 26.664 72.629 26.807 72.629 26.903 C 72.629 26.999 72.594 27.144 72.561 27.234 C 72.519 27.32 72.435 27.44 72.369 27.51 C 72.296 27.573 72.172 27.651 72.083 27.689 C 71.992 27.718 71.87 27.741 71.774 27.742 L 63.406 27.742 C 63.537 28.238 63.806 28.641 64.226 28.973 C 64.699 29.386 65.229 29.578 65.857 29.563 L 82.612 29.563 C 82.797 29.582 83.061 29.691 83.205 29.809 Z M 73.578 13.479 L 76.318 13.479 L 76.318 3.632 C 76.327 3.433 76.3 3.273 76.222 3.09 C 76.153 2.903 76.07 2.775 75.927 2.636 C 75.791 2.49 75.663 2.409 75.479 2.332 C 75.295 2.255 75.148 2.225 74.948 2.225 C 74.749 2.225 74.601 2.255 74.418 2.332 C 74.234 2.409 74.106 2.49 73.97 2.636 C 73.827 2.775 73.744 2.903 73.675 3.09 C 73.597 3.273 73.569 3.423 73.578 3.622 L 73.578 13.479 Z M 69.052 15.157 L 74.14 21.393 C 74.245 21.531 74.344 21.601 74.501 21.676 C 74.658 21.751 74.774 21.777 74.948 21.777 C 75.122 21.777 75.239 21.751 75.396 21.676 C 75.553 21.601 75.651 21.532 75.756 21.393 L 80.844 15.157 L 69.052 15.157 Z"></path>
	<path d="M 88.691 29.889 L 88.404 29.48 L 90.898 27.733 L 84.253 23.823 L 85.657 31.404 L 87.765 29.929 L 88.175 29.643 L 91.564 34.48 L 91.793 34.32 L 88.691 29.889 Z M 93.293 33.536 C 93.478 33.834 93.594 34.282 93.533 34.626 C 93.472 34.971 93.209 35.352 92.934 35.568 L 92.345 35.981 C 92.047 36.166 91.599 36.284 91.254 36.223 C 90.909 36.162 90.528 35.898 90.312 35.623 L 87.762 31.976 L 86.345 32.968 C 86.158 33.09 85.891 33.199 85.67 33.223 C 85.449 33.248 85.164 33.201 84.955 33.124 C 84.751 33.032 84.515 32.866 84.375 32.694 C 84.234 32.521 84.12 32.256 84.072 32.038 L 82.519 23.656 C 82.483 23.403 82.507 23.073 82.603 22.837 C 82.7 22.601 82.914 22.348 83.117 22.194 C 83.332 22.056 83.643 21.951 83.897 21.931 C 84.152 21.931 84.471 22.012 84.695 22.132 L 92.044 26.459 C 92.231 26.579 92.435 26.781 92.556 26.968 C 92.664 27.163 92.746 27.438 92.762 27.66 C 92.763 27.883 92.703 28.163 92.611 28.366 C 92.505 28.562 92.318 28.78 92.141 28.914 L 90.743 29.892 L 93.293 33.536 Z"></path>
	<path d="M 83.354 22.631 C 83.354 22.631 83.42 22.606 83.385 22.374 C 83.295 22.157 83.061 21.859 82.873 21.719 L 81.286 20.824 C 81.18 20.769 81.015 20.707 80.896 20.69 C 80.778 20.673 80.583 20.691 80.465 20.715 C 80.35 20.753 80.176 20.839 80.076 20.906 C 79.986 20.985 79.852 21.129 79.793 21.234 C 79.735 21.338 79.681 21.527 79.66 21.645 C 79.654 21.764 79.671 21.958 79.698 22.076 C 79.739 22.19 79.83 22.361 79.9 22.458 C 79.982 22.546 80.133 22.669 80.236 22.732 L 81.802 23.615 C 81.908 23.667 82.088 23.733 82.205 23.748 C 82.321 23.762 82.513 23.74 82.629 23.716 C 82.742 23.676 82.912 23.59 83.008 23.524 C 83.096 23.446 83.222 23.3 83.286 23.2 L 81.978 22.466 C 81.999 22.444 82.066 22.366 82.083 22.343 C 82.109 22.331 82.199 22.287 82.227 22.271 C 82.257 22.27 82.359 22.255 82.387 22.259 C 82.416 22.262 82.509 22.3 82.539 22.308 L 80.933 21.404 C 80.956 21.424 81.036 21.489 81.06 21.507 C 81.073 21.534 81.12 21.624 81.136 21.651 C 81.137 21.682 81.147 21.785 81.151 21.814 C 81.14 21.842 81.115 21.944 81.101 21.969 C 81.086 21.995 81.013 22.068 80.993 22.093 C 80.965 22.105 80.875 22.149 80.847 22.165 C 80.816 22.165 80.713 22.179 80.684 22.175 C 80.655 22.17 80.576 22.139 80.549 22.13 L 82.134 23.025 C 82.101 22.974 81.983 22.822 81.941 22.778 C 81.954 22.719 81.91 23.035 81.91 23.035 C 81.899 22.889 83.365 22.777 83.354 22.631 Z"></path>
	<path d="M 81.979 23.397 L 80.136 23.572 C 79.912 23.62 79.588 23.788 79.419 23.942 C 79.291 24.131 79.17 24.481 79.154 24.709 C 79.192 24.935 79.346 25.27 79.493 25.446 C 79.676 25.582 80.021 25.719 80.249 25.744 L 80.277 25.744 L 82.164 25.559 C 82.283 25.543 82.451 25.492 82.561 25.444 C 82.664 25.382 82.822 25.266 82.899 25.174 C 82.975 25.082 83.069 24.91 83.104 24.795 C 83.139 24.681 83.151 24.486 83.147 24.366 C 83.127 24.247 83.07 24.063 83.02 23.954 C 82.956 23.852 82.831 23.704 82.743 23.624 C 82.645 23.556 82.472 23.466 82.359 23.427 C 82.243 23.402 82.048 23.387 81.928 23.395 L 82.114 24.883 C 82.085 24.879 81.981 24.871 81.951 24.871 C 81.926 24.856 81.833 24.808 81.807 24.796 C 81.789 24.772 81.723 24.694 81.702 24.672 C 81.695 24.642 81.665 24.546 81.655 24.517 C 81.659 24.486 81.662 24.382 81.671 24.354 C 81.679 24.326 81.729 24.234 81.748 24.212 C 81.767 24.189 81.852 24.13 81.876 24.11 C 81.905 24.103 81.986 24.076 82.014 24.067 L 80.277 24.244 L 80.238 24.244 C 80.292 24.271 80.468 24.341 80.524 24.357 C 80.544 24.413 80.623 24.584 80.652 24.635 C 80.628 24.689 80.566 24.868 80.552 24.925 C 80.497 24.947 80.334 25.033 80.285 25.064 L 82.128 24.89 L 81.979 23.397 Z"></path>
	<path d="M 82.988 20.009 L 82.897 21.827 C 82.899 21.945 82.927 22.133 82.959 22.247 C 83.006 22.356 83.104 22.52 83.178 22.612 C 83.262 22.695 83.415 22.809 83.518 22.865 C 83.626 22.909 83.813 22.956 83.931 22.969 L 83.985 22.97 C 84.211 22.943 84.553 22.807 84.735 22.67 C 84.88 22.495 85.034 22.161 85.072 21.936 L 85.163 20.114 C 85.162 19.996 85.14 19.804 85.101 19.693 C 85.061 19.583 84.956 19.421 84.882 19.329 C 84.798 19.246 84.645 19.133 84.541 19.076 C 84.431 19.032 84.246 18.985 84.129 18.972 C 84.012 18.974 83.819 18.995 83.708 19.035 C 83.598 19.075 83.437 19.179 83.345 19.253 C 83.262 19.337 83.148 19.491 83.091 19.595 C 83.047 19.704 83.001 19.89 82.988 20.008 L 84.486 20.079 C 84.477 20.108 84.453 20.207 84.447 20.235 C 84.428 20.259 84.368 20.34 84.351 20.365 C 84.325 20.379 84.241 20.437 84.214 20.447 C 84.187 20.457 84.083 20.465 84.055 20.471 C 84.027 20.462 83.931 20.438 83.9 20.431 C 83.875 20.411 83.796 20.353 83.771 20.336 C 83.757 20.309 83.698 20.225 83.688 20.199 C 83.679 20.172 83.629 20.128 83.623 20.099 L 83.574 21.861 C 83.603 21.81 83.682 21.639 83.701 21.584 C 83.758 21.567 83.932 21.497 83.985 21.47 L 84.005 21.471 C 84.034 21.48 84.134 21.505 84.162 21.51 C 84.184 21.529 84.264 21.589 84.29 21.606 C 84.304 21.633 84.355 21.717 84.372 21.744 C 84.375 21.775 84.39 21.873 84.396 21.902 L 84.608 19.218 L 82.988 20.009 Z"></path>
	<path d="M 86.063 20.283 L 84.772 21.569 C 84.634 21.755 84.483 22.119 84.459 22.348 C 84.49 22.577 84.635 22.921 84.778 23.103 C 84.96 23.246 85.303 23.391 85.532 23.422 C 85.761 23.397 86.11 23.262 86.296 23.124 L 87.598 21.823 C 87.676 21.735 87.783 21.576 87.834 21.471 C 87.873 21.359 87.918 21.17 87.918 21.053 C 87.918 20.936 87.874 20.748 87.835 20.637 C 87.783 20.53 87.677 20.371 87.6 20.283 C 87.512 20.205 87.352 20.098 87.246 20.046 C 87.135 20.008 86.948 19.971 86.831 19.963 C 86.714 19.97 86.525 20.007 86.413 20.046 C 86.307 20.097 86.148 20.204 86.06 20.281 L 87.119 21.344 C 87.094 21.358 87.009 21.415 86.985 21.432 C 86.956 21.437 86.855 21.456 86.827 21.463 C 86.799 21.456 86.7 21.436 86.671 21.432 C 86.647 21.414 86.562 21.357 86.537 21.342 C 86.523 21.317 86.467 21.234 86.449 21.209 C 86.444 21.179 86.418 21.081 86.418 21.053 C 86.418 21.024 86.445 20.923 86.449 20.894 C 86.467 20.871 86.523 20.787 86.538 20.762 L 85.265 22.034 C 85.323 22.018 85.501 21.949 85.554 21.922 C 85.606 21.95 85.781 22.024 85.838 22.042 C 85.856 22.1 85.93 22.274 85.959 22.327 C 85.932 22.381 85.847 22.574 85.831 22.631 L 87.121 21.345 L 86.063 20.283 Z"></path>
</svg>