<svg viewBox="94.108 27.125 34.555 36.728" height="36px">
  <path d="M 35.165 7.815 L 35.165 12.471 C 35.153 13.21 34.923 14.033 34.543 14.687 C 34.144 15.324 33.745 15.705 33.218 16.092 L 33.218 32.707 C 33.168 33.987 32.472 35.296 31.442 36.101 C 30.428 36.894 28.916 37.402 27.393 37.423 L 24.201 37.423 C 24.088 37.418 23.91 37.387 23.801 37.353 C 23.694 37.308 23.533 37.212 23.441 37.14 C 23.355 37.055 23.237 36.897 23.177 36.79 C 23.132 36.672 23.087 36.471 23.078 36.346 L 23.084 23.523 C 23.12 22.294 22.62 21.243 21.597 20.383 C 20.601 19.472 19.336 19.036 17.887 19.036 C 16.438 19.036 15.191 19.491 14.178 20.383 C 13.175 21.266 12.655 22.293 12.69 23.523 L 12.696 36.344 C 12.687 36.47 12.642 36.673 12.597 36.789 C 12.538 36.896 12.419 37.054 12.333 37.14 C 12.24 37.212 12.08 37.307 11.973 37.353 C 11.864 37.386 11.688 37.417 11.574 37.423 L 8.381 37.423 C 6.858 37.401 5.346 36.893 4.333 36.101 C 3.302 35.295 2.606 33.986 2.556 32.706 L 2.556 16.093 C 2.029 15.705 1.63 15.324 1.231 14.687 C 0.851 14.033 0.621 13.213 0.61 12.474 L 0.61 7.811 C 0.614 7.725 0.638 7.579 0.66 7.496 L 2.607 1.452 C 2.69 1.269 2.875 0.997 3.038 0.888 C 3.194 0.784 3.491 0.711 3.678 0.695 L 32.099 0.695 C 32.285 0.711 32.571 0.798 32.737 0.888 C 32.889 1.013 33.085 1.271 33.168 1.454 L 35.116 7.501 C 35.138 7.584 35.16 7.728 35.165 7.815 Z M 30.945 16.926 L 31.593 16.888 C 31.569 16.895 31.546 16.902 31.524 16.908 L 31.477 16.92 C 31.42 16.936 31.356 16.951 31.296 16.965 L 31.242 16.977 C 31.176 16.992 31.098 17.008 31.025 17.022 L 30.985 17.028 C 30.922 17.039 30.861 17.048 30.797 17.057 L 30.753 17.063 C 30.689 17.071 30.595 17.083 30.517 17.09 L 30.433 17.093 C 30.378 17.098 30.354 17.103 30.253 17.105 L 30.219 17.105 C 30.14 17.109 30.07 17.11 30.004 17.11 C 29.052 17.096 28.026 16.825 27.217 16.374 C 26.417 15.896 26.326 15.736 25.965 15.328 C 25.603 15.736 25.513 15.895 24.712 16.373 C 23.903 16.823 22.878 17.105 21.926 17.105 C 20.974 17.105 19.949 16.823 19.14 16.373 C 18.339 15.895 18.249 15.736 17.887 15.328 C 17.526 15.736 17.435 15.895 16.634 16.373 C 15.825 16.823 14.8 17.105 13.848 17.105 C 12.896 17.105 11.871 16.823 11.062 16.373 C 10.262 15.895 10.17 15.735 9.809 15.327 C 9.447 15.735 9.356 15.895 8.556 16.372 C 7.747 16.822 6.722 17.092 5.771 17.105 C 5.681 17.104 5.613 17.1 5.573 17.101 L 5.522 17.101 C 5.456 17.098 5.343 17.092 5.269 17.085 L 5.324 17.089 C 5.244 17.081 5.102 17.069 5.039 17.061 L 4.982 17.054 C 4.92 17.045 4.852 17.035 4.791 17.024 L 4.772 17.021 C 4.7 17.008 4.602 16.988 4.536 16.974 L 4.479 16.961 C 4.42 16.947 4.359 16.932 4.299 16.916 L 4.271 16.909 C 4.203 16.89 4.793 16.953 4.793 16.953 L 4.8 32.706 C 4.749 33.429 5.104 33.937 5.776 34.451 C 6.466 34.979 7.309 35.288 8.381 35.268 L 10.452 35.268 L 10.447 23.524 C 10.483 21.801 11.314 20.021 12.661 18.794 C 14.035 17.618 15.984 16.881 17.887 16.881 C 19.79 16.881 21.74 17.618 23.114 18.794 C 24.46 20.021 25.292 21.801 25.327 23.523 L 25.322 35.268 L 27.393 35.268 C 28.465 35.288 29.308 34.979 29.998 34.451 C 30.67 33.937 31.025 33.429 30.974 32.706 L 30.945 16.926 Z M 32.921 7.979 L 31.269 2.851 L 4.506 2.851 L 2.853 7.979 L 2.853 12.472 C 2.829 13.042 3.017 13.467 3.418 13.932 C 3.825 14.404 4.295 14.703 4.962 14.851 C 5.431 14.974 5.851 14.982 6.332 14.902 C 6.811 14.821 7.19 14.682 7.569 14.419 C 7.955 14.173 8.202 13.911 8.401 13.538 C 8.617 13.18 8.7 12.873 8.688 12.471 C 8.723 12.225 8.889 11.861 9.051 11.677 C 9.24 11.545 9.582 11.394 9.809 11.394 C 10.036 11.394 10.396 11.526 10.568 11.677 C 10.749 11.837 10.931 12.225 10.931 12.472 C 10.931 13.169 11.154 13.709 11.751 14.192 C 12.319 14.727 13.004 14.951 13.848 14.951 C 14.692 14.951 15.377 14.727 15.946 14.192 C 16.542 13.709 16.765 13.168 16.765 12.472 C 16.765 12.225 16.947 11.837 17.129 11.677 C 17.301 11.526 17.66 11.394 17.887 11.394 C 18.114 11.394 18.474 11.526 18.646 11.677 C 18.827 11.837 19.009 12.225 19.009 12.472 C 19.009 13.169 19.232 13.709 19.829 14.192 C 20.397 14.727 21.082 14.951 21.926 14.951 C 22.77 14.951 23.455 14.727 24.024 14.192 C 24.62 13.709 24.843 13.168 24.843 12.472 C 24.843 12.225 25.025 11.837 25.206 11.677 C 25.378 11.526 25.738 11.394 25.965 11.394 C 26.192 11.394 26.552 11.526 26.724 11.677 C 26.905 11.837 27.087 12.225 27.087 12.472 C 27.087 13.168 27.31 13.709 27.906 14.192 C 28.475 14.727 29.16 14.951 30.004 14.951 C 30.848 14.951 31.533 14.727 32.101 14.192 C 32.698 13.709 32.957 13.168 32.921 12.472 L 32.921 7.979 Z" transform="matrix(1, 0, 0, 1, 93.498253, 26.430487)"></path>
</svg>