<svg viewBox="85.48 0.429 27.591 26.501" height="36px">
  <path d="M 16.968 3.414 L 16.664 3.746 C 17.306 3.046 18.135 2.434 18.943 2.05 C 19.764 1.684 20.738 1.459 21.612 1.459 C 22.487 1.459 23.461 1.685 24.283 2.05 C 25.091 2.434 25.979 3.121 26.622 3.82 C 26.622 3.82 27.733 5.328 28.096 6.303 C 28.442 7.232 28.638 8.32 28.638 9.333 C 28.638 10.345 28.442 11.434 28.096 12.363 C 27.749 13.296 27.186 14.212 26.562 14.919 L 26.269 15.251 L 26.263 15.251 L 25.111 16.532 L 14.842 27.96 L 4.572 16.533 L 3.122 14.919 C 1.876 13.482 1.047 11.381 1.047 9.333 C 1.047 7.284 1.877 5.183 3.122 3.746 C 4.434 2.35 6.323 1.459 8.071 1.459 C 9.819 1.459 11.708 2.35 13.02 3.746 L 14.469 5.358 C 14.586 5.553 14.62 5.525 14.842 5.525 C 15.063 5.525 15.097 5.553 15.213 5.36 L 16.961 3.414 Z M 17.853 5.414 L 16.701 6.696 C 16.249 7.135 15.471 7.525 14.842 7.525 C 14.212 7.525 13.436 7.135 12.983 6.698 L 11.532 5.082 C 10.554 3.93 9.409 3.459 8.071 3.459 C 6.733 3.459 5.588 3.93 4.61 5.082 C 3.556 6.205 3.047 7.638 3.047 9.333 C 3.047 11.027 3.556 12.46 4.61 13.583 L 6.06 15.195 L 14.842 24.968 L 23.623 15.196 L 25.194 13.448 C 25.642 12.929 25.962 12.363 26.222 11.665 C 26.506 10.902 26.638 10.168 26.638 9.333 C 26.638 8.498 26.506 7.764 26.222 7.001 C 25.955 6.284 25.2 5.26 25.04 5.045 C 24.557 4.502 24.078 4.146 23.446 3.866 C 22.827 3.57 22.273 3.459 21.612 3.459 C 20.952 3.459 20.397 3.569 19.779 3.866 C 19.147 4.146 18.644 4.518 18.152 5.082 L 17.862 5.414 Z" transform="matrix(1, 0, 0, 1, 84.433479, -1.029966)"></path>
</svg>