<svg viewBox="136.559 -16.541 41.745 36.028" height="36px">
  <ellipse cx="102.81" cy="51.424" rx="12.231" ry="12.519" stroke-width="1.5" fill="#FAFAFE" style="paint-order: fill;" transform="matrix(1, 0, 0, 1, 46.730209, -54.696182)"></ellipse>
  <path d="M 115.791 51.424 C 115.791 55.031 114.301 58.44 111.995 60.8 C 109.688 63.162 106.344 64.693 102.81 64.693 C 99.276 64.693 95.932 63.162 93.625 60.8 C 91.319 58.44 89.829 55.031 89.829 51.424 C 89.829 47.817 91.319 44.408 93.625 42.048 C 95.932 39.686 99.276 38.155 102.81 38.155 C 106.344 38.155 109.688 39.686 111.995 42.048 C 114.301 44.408 115.791 47.817 115.791 51.424 Z M 110.922 43.096 C 108.803 40.927 106.031 39.655 102.81 39.655 C 99.589 39.655 96.817 40.927 94.698 43.096 C 92.577 45.266 91.329 48.117 91.329 51.424 C 91.329 54.731 92.577 57.582 94.698 59.752 C 96.817 61.921 99.589 63.193 102.81 63.193 C 106.031 63.193 108.803 61.921 110.922 59.752 C 113.043 57.582 114.291 54.731 114.291 51.424 C 114.291 48.117 113.043 45.267 110.922 43.096 Z" transform="matrix(1, 0, 0, 1, 46.730209, -54.696182)"></path>
  <path d="M 115.791 51.424 C 115.791 55.031 114.301 58.44 111.995 60.8 C 109.688 63.162 106.344 64.693 102.81 64.693 C 99.276 64.693 95.932 63.162 93.625 60.8 C 91.319 58.44 89.829 55.031 89.829 51.424 C 89.829 47.817 91.319 44.408 93.625 42.048 C 95.932 39.686 99.276 38.155 102.81 38.155 C 106.344 38.155 109.688 39.686 111.995 42.048 C 114.301 44.408 115.791 47.817 115.791 51.424 Z M 110.922 43.096 C 108.803 40.927 106.031 39.655 102.81 39.655 C 99.589 39.655 96.817 40.927 94.698 43.096 C 92.577 45.266 91.329 48.117 91.329 51.424 C 91.329 54.731 92.577 57.582 94.698 59.752 C 96.817 61.921 99.589 63.193 102.81 63.193 C 106.031 63.193 108.803 61.921 110.922 59.752 C 113.043 57.582 114.291 54.731 114.291 51.424 C 114.291 48.117 113.043 45.267 110.922 43.096 Z" transform="matrix(1, 0, 0, 1, 46.730209, -54.696182)"></path>
  <ellipse cx="102.81" cy="51.425" rx="10.072" ry="10.243" stroke-width="1.5" style="fill: rgb(255, 255, 255); paint-order: fill;" transform="matrix(1, 0, 0, 1, 46.730209, -54.696182)"></ellipse>
  <path d="M 113.632 51.425 C 113.632 54.405 112.383 57.245 110.467 59.194 C 108.55 61.143 105.747 62.418 102.81 62.418 C 99.873 62.418 97.07 61.143 95.153 59.194 C 93.237 57.245 91.988 54.405 91.988 51.425 C 91.988 48.445 93.237 45.605 95.153 43.656 C 97.07 41.707 99.873 40.432 102.81 40.432 C 105.747 40.432 108.55 41.707 110.467 43.656 C 112.383 45.605 113.632 48.445 113.632 51.425 Z M 109.397 44.708 C 107.669 42.95 105.436 41.932 102.81 41.932 C 100.184 41.932 97.951 42.95 96.223 44.708 C 94.493 46.467 93.488 48.748 93.488 51.425 C 93.488 54.102 94.493 56.383 96.223 58.142 C 97.951 59.9 100.184 60.918 102.81 60.918 C 105.436 60.918 107.669 59.9 109.397 58.142 C 111.127 56.383 112.132 54.102 112.132 51.425 C 112.132 48.748 111.127 46.467 109.397 44.708 Z" transform="matrix(1, 0, 0, 1, 46.730209, -54.696182)"></path>
  <path d="M 105.581 46.271 C 103.198 45.216 101.238 45.691 100.247 46.226 C 100.016 46.35 99.721 46.32 99.528 46.141 C 98.111 44.834 96.827 45.509 96.334 46.054 C 94.369 48.302 96.166 49.625 96.788 50.571 C 96.841 50.651 96.861 50.748 96.856 50.844 C 96.681 54.473 98.608 55.737 99.831 55.976 C 100.008 56.011 100.165 56.119 100.255 56.276 C 100.918 57.439 101.931 57.664 102.71 57.664 C 103.998 57.664 104.453 57.258 105.362 56.179 C 105.449 56.075 105.576 56.012 105.71 55.994 C 108.353 55.636 108.832 52.385 108.739 50.647 C 108.73 50.471 108.807 50.303 108.941 50.189 C 110.827 48.603 109.926 46.644 109.267 46.054 C 107.945 44.855 106.859 45.435 106.288 46.09 C 106.113 46.291 105.824 46.379 105.581 46.271 Z" fill="#FAFAFE" style="" transform="matrix(1, 0, 0, 1, 46.730209, -54.696182)"></path>
  <path d="M 105.911 45.761 C 106.236 45.398 106.796 44.977 107.421 44.882 C 108.026 44.791 108.835 45.027 109.602 45.683 C 109.978 46.034 110.474 46.83 110.556 47.701 C 110.636 48.552 110.286 49.653 109.265 50.57 C 109.196 50.598 109.207 50.562 109.238 50.621 C 109.284 51.523 109.181 52.881 108.713 54.027 C 108.245 55.176 107.254 56.226 105.777 56.49 C 105.756 56.487 105.747 56.483 105.744 56.48 C 105.745 56.484 105.746 56.49 105.744 56.501 C 104.811 57.606 104.164 58.164 102.71 58.164 C 101.877 58.164 100.647 57.807 99.821 56.525 C 99.806 56.449 99.818 56.462 99.734 56.467 C 99.063 56.327 98.104 55.875 97.422 54.985 C 96.764 54.126 96.285 52.732 96.356 50.824 C 96.076 50.398 95.44 49.798 95.124 48.981 C 94.807 48.157 94.919 46.995 95.963 45.719 C 96.254 45.408 96.847 44.996 97.519 44.907 C 98.167 44.822 99.047 45.061 99.868 45.774 C 99.893 45.817 99.874 45.794 99.93 45.8 C 99.985 45.807 99.969 45.822 100.011 45.785 C 101.061 45.227 103.241 44.745 105.784 45.814 C 105.813 45.847 105.777 45.828 105.83 45.814 C 105.884 45.799 105.88 45.814 105.911 45.761 Z M 106.09 46.779 C 105.894 46.832 105.592 46.803 105.378 46.728 C 103.155 45.688 101.416 46.154 100.485 46.666 C 100.295 46.754 100.015 46.816 99.817 46.794 C 99.619 46.771 99.356 46.644 99.188 46.508 C 98.593 45.915 98.122 45.837 97.65 45.899 C 97.202 45.957 96.911 46.151 96.709 46.385 C 95.789 47.355 95.812 47.985 96.057 48.621 C 96.3 49.25 96.856 49.777 97.205 50.295 C 97.294 50.463 97.355 50.71 97.355 50.87 C 97.254 52.587 97.65 53.638 98.216 54.377 C 98.76 55.086 99.375 55.386 99.927 55.485 C 100.197 55.56 100.524 55.789 100.689 56.027 C 101.189 57.07 101.985 57.164 102.71 57.164 C 103.832 57.164 104.095 56.911 104.979 55.858 C 105.146 55.691 105.431 55.54 105.643 55.499 C 106.809 55.404 107.379 54.65 107.788 53.649 C 108.197 52.645 108.287 51.51 108.24 50.674 C 108.253 50.381 108.418 50.008 108.617 49.808 C 109.48 49.14 109.624 48.468 109.561 47.795 C 109.499 47.143 109.217 46.666 108.934 46.427 C 108.378 45.884 107.982 45.809 107.571 45.871 C 107.179 45.93 106.911 46.127 106.665 46.419 C 106.521 46.567 106.285 46.727 106.09 46.779 Z" transform="matrix(1, 0, 0, 1, 46.730209, -54.696182)"></path>
  <path d="M 99.181 47.307 C 99.181 48.026 98.091 49.269 97.325 49.269 C 96.56 49.269 96.238 48.437 96.238 47.717 C 96.238 46.998 96.934 46.219 97.7 46.219 C 98.466 46.219 99.181 46.588 99.181 47.307 Z" stroke-width="0.1" transform="matrix(1, 0, 0, 1, 46.730209, -54.696182)"></path>
  <path d="M 99.231 47.307 C 99.231 47.679 98.949 48.187 98.577 48.591 C 98.205 48.996 97.722 49.319 97.325 49.319 C 96.927 49.319 96.632 49.095 96.452 48.788 C 96.271 48.483 96.188 48.082 96.188 47.717 C 96.188 47.347 96.37 46.954 96.645 46.664 C 96.921 46.374 97.305 46.169 97.7 46.169 C 98.089 46.169 98.474 46.265 98.755 46.452 C 99.038 46.639 99.231 46.934 99.231 47.307 Z M 98.7 46.535 C 98.433 46.358 98.077 46.269 97.7 46.269 C 97.329 46.269 96.982 46.454 96.718 46.733 C 96.454 47.012 96.288 47.368 96.288 47.717 C 96.288 48.072 96.366 48.447 96.538 48.738 C 96.709 49.028 96.958 49.219 97.325 49.219 C 97.694 49.219 98.139 48.92 98.503 48.524 C 98.868 48.127 99.131 47.654 99.131 47.307 C 99.131 46.961 98.966 46.712 98.7 46.535 Z" transform="matrix(1, 0, 0, 1, 46.730209, -54.696182)"></path>
  <path d="M 106.635 47.22 C 106.545 47.971 107.407 49.401 108.122 49.493 C 108.837 49.586 109.242 48.754 109.332 48.003 C 109.422 47.252 108.87 46.354 108.154 46.261 C 107.439 46.169 106.726 46.468 106.635 47.22 Z" stroke-width="0.1" transform="matrix(1, 0, 0, 1, 46.730209, -54.696182)"></path>
  <path d="M 108.16 46.211 C 108.531 46.263 108.866 46.521 109.087 46.858 C 109.307 47.194 109.428 47.624 109.382 48.009 C 109.336 48.389 109.209 48.797 109.002 49.093 C 108.795 49.391 108.49 49.585 108.116 49.543 C 107.744 49.49 107.331 49.098 107.034 48.63 C 106.738 48.163 106.542 47.601 106.585 47.214 C 106.636 46.826 106.848 46.543 107.136 46.38 C 107.423 46.219 107.796 46.165 108.16 46.211 Z M 107.185 46.468 C 106.915 46.62 106.725 46.862 106.685 47.226 C 106.638 47.59 106.828 48.119 107.119 48.577 C 107.409 49.035 107.785 49.404 108.128 49.443 C 108.469 49.494 108.724 49.319 108.92 49.036 C 109.118 48.752 109.238 48.368 109.282 47.997 C 109.326 47.631 109.216 47.236 109.003 46.913 C 108.792 46.589 108.493 46.352 108.148 46.311 C 107.797 46.265 107.456 46.315 107.185 46.468 Z" transform="matrix(1, 0, 0, 1, 46.730209, -54.696182)"></path>
  <ellipse cx="105.201" cy="51.153" rx="0.664" ry="0.689" stroke-width="0.5" transform="matrix(1, 0, 0, 1, 46.730209, -54.696182)"></ellipse>
  <path d="M 106.115 51.153 C 106.115 51.393 106.001 51.657 105.851 51.814 C 105.699 51.971 105.437 52.092 105.201 52.092 C 104.965 52.092 104.703 51.971 104.551 51.814 C 104.401 51.657 104.287 51.393 104.287 51.153 C 104.287 50.913 104.401 50.649 104.551 50.492 C 104.703 50.335 104.965 50.214 105.201 50.214 C 105.437 50.214 105.699 50.335 105.851 50.492 C 106.001 50.649 106.115 50.913 106.115 51.153 Z M 105.491 50.839 C 105.402 50.747 105.332 50.714 105.201 50.714 C 105.07 50.714 105 50.747 104.911 50.839 C 104.822 50.932 104.787 51.012 104.787 51.153 C 104.787 51.294 104.822 51.374 104.911 51.467 C 105 51.559 105.07 51.592 105.201 51.592 C 105.332 51.592 105.402 51.559 105.491 51.467 C 105.58 51.374 105.615 51.294 105.615 51.153 C 105.615 51.012 105.58 50.932 105.491 50.839 Z" transform="matrix(1, 0, 0, 1, 46.730209, -54.696182)"></path>
  <ellipse cx="105.102" cy="50.771" rx="0.099" ry="0.103" stroke-width="0.4" fill="#FAFAFE" transform="matrix(1, 0, 0, 1, 46.730209, -54.696182)"></ellipse>
  <path d="M 105.401 50.771 C 105.401 50.839 105.358 50.938 105.316 50.982 C 105.273 51.027 105.172 51.074 105.102 51.074 C 105.032 51.074 104.931 51.027 104.888 50.982 C 104.846 50.938 104.803 50.839 104.803 50.771 C 104.803 50.703 104.846 50.604 104.888 50.56 C 104.931 50.515 105.032 50.468 105.102 50.468 C 105.172 50.468 105.273 50.515 105.316 50.56 C 105.358 50.604 105.401 50.703 105.401 50.771 Z M 105.028 50.837 C 105.035 50.844 105.087 50.868 105.102 50.868 C 105.117 50.868 105.169 50.844 105.176 50.837 C 105.183 50.83 105.183 50.712 105.176 50.705 C 105.169 50.698 105.117 50.674 105.102 50.674 C 105.087 50.674 105.035 50.698 105.028 50.705 C 105.021 50.712 105.021 50.83 105.028 50.837 Z" fill="#FAFAFE" transform="matrix(1, 0, 0, 1, 46.730209, -54.696182)"></path>
  <path d="M 105.901 50.771 C 105.901 50.939 105.768 51.21 105.678 51.327 C 105.559 51.426 105.277 51.574 105.102 51.574 C 104.927 51.574 104.645 51.426 104.526 51.327 C 104.436 51.21 104.303 50.939 104.303 50.771 C 104.303 50.603 104.436 50.332 104.526 50.215 C 104.645 50.116 104.927 49.968 105.102 49.968 C 105.277 49.968 105.559 50.116 105.678 50.215 C 105.768 50.332 105.901 50.603 105.901 50.771 Z" style="fill: none;" transform="matrix(1, 0, 0, 1, 46.730209, -54.696182)"></path>
  <ellipse cx="100.14" cy="51.153" rx="0.664" ry="0.689" stroke-width="0.5" transform="matrix(1, 0, 0, 1, 46.730209, -54.696182)"></ellipse>
  <path d="M 101.054 51.153 C 101.054 51.393 100.94 51.657 100.79 51.814 C 100.638 51.971 100.376 52.092 100.14 52.092 C 99.904 52.092 99.642 51.971 99.49 51.814 C 99.34 51.657 99.226 51.393 99.226 51.153 C 99.226 50.913 99.34 50.649 99.49 50.492 C 99.642 50.335 99.904 50.214 100.14 50.214 C 100.376 50.214 100.638 50.335 100.79 50.492 C 100.94 50.649 101.054 50.913 101.054 51.153 Z M 100.43 50.839 C 100.341 50.747 100.271 50.714 100.14 50.714 C 100.009 50.714 99.939 50.747 99.85 50.839 C 99.761 50.932 99.726 51.012 99.726 51.153 C 99.726 51.294 99.761 51.374 99.85 51.467 C 99.939 51.559 100.009 51.592 100.14 51.592 C 100.271 51.592 100.341 51.559 100.43 51.467 C 100.519 51.374 100.554 51.294 100.554 51.153 C 100.554 51.012 100.519 50.932 100.43 50.839 Z" style="fill: none;" transform="matrix(1, 0, 0, 1, 46.730209, -54.696182)"></path>
  <path d="M 101.054 51.153 C 101.054 51.393 100.94 51.657 100.79 51.814 C 100.638 51.971 100.376 52.092 100.14 52.092 C 99.904 52.092 99.642 51.971 99.49 51.814 C 99.34 51.657 99.226 51.393 99.226 51.153 C 99.226 50.913 99.34 50.649 99.49 50.492 C 99.642 50.335 99.904 50.214 100.14 50.214 C 100.376 50.214 100.638 50.335 100.79 50.492 C 100.94 50.649 101.054 50.913 101.054 51.153 Z M 100.43 50.839 C 100.341 50.747 100.271 50.714 100.14 50.714 C 100.009 50.714 99.939 50.747 99.85 50.839 C 99.761 50.932 99.726 51.012 99.726 51.153 C 99.726 51.294 99.761 51.374 99.85 51.467 C 99.939 51.559 100.009 51.592 100.14 51.592 C 100.271 51.592 100.341 51.559 100.43 51.467 C 100.519 51.374 100.554 51.294 100.554 51.153 C 100.554 51.012 100.519 50.932 100.43 50.839 Z" transform="matrix(1, 0, 0, 1, 46.730209, -54.696182)"></path>
  <ellipse cx="100.041" cy="50.771" rx="0.099" ry="0.103" stroke-width="0.4" fill="#FAFAFE" transform="matrix(1, 0, 0, 1, 46.730209, -54.696182)"></ellipse>
  <path d="M 100.34 50.771 C 100.34 50.839 100.297 50.938 100.255 50.982 C 100.212 51.027 100.111 51.074 100.041 51.074 C 99.971 51.074 99.87 51.027 99.827 50.982 C 99.785 50.938 99.742 50.839 99.742 50.771 C 99.742 50.703 99.785 50.604 99.827 50.56 C 99.87 50.515 99.971 50.468 100.041 50.468 C 100.111 50.468 100.212 50.515 100.255 50.56 C 100.297 50.604 100.34 50.703 100.34 50.771 Z M 99.967 50.837 C 99.974 50.844 100.026 50.868 100.041 50.868 C 100.056 50.868 100.108 50.844 100.115 50.837 C 100.122 50.83 100.122 50.712 100.115 50.705 C 100.108 50.698 100.056 50.674 100.041 50.674 C 100.026 50.674 99.974 50.698 99.967 50.705 C 99.96 50.712 99.96 50.83 99.967 50.837 Z" fill="#FAFAFE" transform="matrix(1, 0, 0, 1, 46.730209, -54.696182)"></path>
  <path d="M 102.396 54.544 C 102.379 54.948 102.635 54.926 102.737 54.932 C 102.971 54.944 103.143 54.867 103.114 54.544 C 103.114 54.48 103.186 54.367 103.509 54.367 C 103.706 54.367 103.942 53.511 102.737 53.511 C 101.589 53.511 101.787 54.367 102.02 54.367 C 102.206 54.367 102.401 54.431 102.396 54.544 Z" transform="matrix(1, 0, 0, 1, 46.730209, -54.696182)"></path>
  <path d="M 102.737 54.932 L 102.75 54.682 L 102.737 54.932 Z M 102.396 54.544 L 102.646 54.555 L 102.396 54.544 Z M 103.114 54.544 L 102.865 54.566 L 102.864 54.555 L 102.864 54.544 L 103.114 54.544 Z M 102.724 55.181 C 102.709 55.181 102.534 55.188 102.391 55.101 C 102.212 54.991 102.135 54.789 102.146 54.534 L 102.646 54.555 C 102.643 54.631 102.654 54.666 102.658 54.677 C 102.661 54.684 102.66 54.679 102.653 54.674 C 102.649 54.672 102.653 54.675 102.671 54.678 C 102.68 54.679 102.69 54.68 102.703 54.68 C 102.71 54.681 102.716 54.681 102.724 54.681 C 102.731 54.681 102.741 54.682 102.75 54.682 L 102.724 55.181 Z M 102.146 54.534 C 102.144 54.586 102.168 54.623 102.183 54.64 C 102.195 54.652 102.199 54.65 102.182 54.643 C 102.149 54.629 102.089 54.617 102.02 54.617 L 102.02 54.117 C 102.137 54.117 102.267 54.136 102.377 54.183 C 102.465 54.22 102.656 54.329 102.646 54.555 L 102.146 54.534 Z M 102.02 54.617 C 101.806 54.617 101.687 54.439 101.641 54.329 C 101.586 54.197 101.571 54.031 101.621 53.866 C 101.731 53.505 102.105 53.261 102.737 53.261 L 102.737 53.761 C 102.222 53.761 102.12 53.945 102.1 54.012 C 102.085 54.061 102.091 54.109 102.103 54.137 C 102.124 54.188 102.117 54.117 102.02 54.117 L 102.02 54.617 Z M 102.75 54.682 C 102.795 54.684 102.826 54.682 102.846 54.678 C 102.865 54.673 102.867 54.669 102.863 54.673 C 102.857 54.678 102.858 54.681 102.861 54.671 C 102.865 54.657 102.87 54.626 102.865 54.566 L 103.363 54.522 C 103.381 54.725 103.342 54.923 103.185 55.055 C 103.042 55.176 102.859 55.189 102.724 55.181 L 102.75 54.682 Z M 102.864 54.544 C 102.864 54.414 102.937 54.294 103.058 54.219 C 103.172 54.148 103.323 54.117 103.509 54.117 L 103.509 54.617 C 103.371 54.617 103.325 54.642 103.323 54.643 C 103.323 54.643 103.325 54.642 103.33 54.637 C 103.334 54.633 103.34 54.627 103.345 54.618 C 103.356 54.599 103.364 54.574 103.364 54.544 L 102.864 54.544 Z M 103.509 54.117 C 103.442 54.117 103.406 54.151 103.403 54.155 C 103.397 54.161 103.401 54.159 103.407 54.143 C 103.42 54.111 103.425 54.062 103.41 54.014 C 103.39 53.949 103.286 53.761 102.737 53.761 L 102.737 53.261 C 103.392 53.261 103.773 53.501 103.887 53.864 C 103.939 54.029 103.924 54.194 103.874 54.323 C 103.849 54.387 103.812 54.452 103.76 54.505 C 103.711 54.555 103.625 54.617 103.509 54.617 L 103.509 54.117 Z" transform="matrix(1, 0, 0, 1, 46.730209, -54.696182)"></path>
  <path d="M 103.827 55.062 C 104.893 54.933 107.266 54.779 108.224 55.19" stroke-width="0.1" stroke-linecap="round" style="fill: rgb(255, 255, 255);" transform="matrix(1, 0, 0, 1, 46.730209, -54.696182)"></path>
  <path d="M 103.821 55.012 C 104.355 54.948 105.218 54.877 106.066 54.874 C 106.49 54.872 106.913 54.887 107.288 54.929 C 107.476 54.95 107.654 54.977 107.814 55.012 C 107.895 55.03 107.972 55.05 108.043 55.072 C 108.114 55.093 108.239 55.142 108.239 55.142 C 108.24 55.143 108.206 55.237 108.207 55.237 C 108.207 55.237 108.145 55.212 108.113 55.2 C 108.081 55.189 108.048 55.178 108.014 55.167 C 107.945 55.146 107.871 55.127 107.793 55.11 C 107.636 55.076 107.463 55.049 107.277 55.028 C 106.905 54.987 106.488 54.972 106.066 54.973 C 105.222 54.977 104.365 55.047 103.833 55.112 Z" transform="matrix(1, 0, 0, 1, 46.730209, -54.696182)"></path>
  <path d="M 103.836 55.373 C 104.909 55.348 107.286 55.423 108.203 55.925" stroke-width="0.1" stroke-linecap="round" style="fill: rgb(255, 255, 255);" transform="matrix(1, 0, 0, 1, 46.730209, -54.696182)"></path>
  <path d="M 103.835 55.323 C 104.372 55.311 105.238 55.323 106.083 55.402 C 106.505 55.441 106.925 55.497 107.295 55.575 C 107.48 55.613 107.655 55.658 107.811 55.709 C 107.89 55.734 107.965 55.761 108.034 55.79 C 108.103 55.818 108.222 55.879 108.222 55.879 C 108.223 55.879 108.181 55.97 108.182 55.97 C 108.182 55.97 108.122 55.939 108.091 55.924 C 108.061 55.91 108.029 55.896 107.996 55.882 C 107.928 55.854 107.857 55.828 107.781 55.804 C 107.627 55.754 107.458 55.711 107.274 55.672 C 106.908 55.596 106.494 55.54 106.073 55.501 C 105.232 55.423 104.373 55.411 103.837 55.423 Z" transform="matrix(1, 0, 0, 1, 46.730209, -54.696182)"></path>
  <path d="M 103.787 55.712 C 104.858 55.784 107.22 56.074 108.091 56.657" stroke-width="0.1" stroke-linecap="round" style="fill: rgb(255, 255, 255);" transform="matrix(1, 0, 0, 1, 46.730209, -54.696182)"></path>
  <path d="M 103.79 55.662 C 104.327 55.698 105.188 55.789 106.023 55.944 C 106.441 56.021 106.854 56.115 107.216 56.226 C 107.398 56.281 107.568 56.341 107.719 56.406 C 107.795 56.438 107.868 56.472 107.934 56.507 C 108.001 56.542 108.114 56.613 108.114 56.613 C 108.115 56.613 108.065 56.7 108.066 56.7 C 108.066 56.7 108.009 56.664 107.98 56.646 C 107.95 56.629 107.92 56.612 107.888 56.595 C 107.823 56.562 107.755 56.53 107.68 56.498 C 107.532 56.435 107.366 56.376 107.187 56.321 C 106.828 56.212 106.421 56.119 106.005 56.042 C 105.174 55.888 104.318 55.798 103.784 55.762 Z" transform="matrix(1, 0, 0, 1, 46.730209, -54.696182)"></path>
  <path d="M 101.31 55.071 C 100.243 54.943 97.87 54.789 96.912 55.2" stroke-width="0.1" stroke-linecap="round" style="fill: rgb(255, 255, 255);" transform="matrix(1, 0, 0, 1, 46.730209, -54.696182)"></path>
  <path d="M 101.316 55.021 C 101.316 55.021 101.248 55.013 101.212 55.009 C 101.176 55.005 101.139 55.001 101.101 54.997 C 101.024 54.989 100.943 54.981 100.859 54.973 C 100.689 54.957 100.505 54.942 100.311 54.929 C 99.923 54.903 99.494 54.885 99.07 54.883 C 98.222 54.88 97.379 54.947 96.892 55.154 L 96.932 55.246 C 97.403 55.042 98.226 54.98 99.07 54.983 C 99.492 54.985 99.917 55.003 100.304 55.029 C 100.497 55.042 100.681 55.057 100.849 55.073 C 100.934 55.081 101.014 55.088 101.09 55.097 C 101.128 55.101 101.165 55.105 101.201 55.109 C 101.236 55.113 101.304 55.121 101.304 55.121 C 101.304 55.121 101.316 55.021 101.316 55.021 Z" transform="matrix(1, 0, 0, 1, 46.730209, -54.696182)"></path>
  <path d="M 101.301 55.383 C 100.227 55.358 97.851 55.433 96.933 55.935" stroke-width="0.1" stroke-linecap="round" style="fill: rgb(255, 255, 255);" transform="matrix(1, 0, 0, 1, 46.730209, -54.696182)"></path>
  <path d="M 101.302 55.333 C 101.302 55.333 101.233 55.332 101.197 55.331 C 101.161 55.33 101.124 55.33 101.086 55.33 C 101.009 55.329 100.927 55.329 100.842 55.329 C 100.673 55.33 100.487 55.332 100.293 55.338 C 99.904 55.35 99.476 55.372 99.054 55.412 C 98.209 55.49 97.376 55.637 96.909 55.891 L 96.957 55.979 C 97.408 55.731 98.222 55.589 99.063 55.511 C 99.484 55.472 99.908 55.449 100.296 55.438 C 100.49 55.432 100.674 55.43 100.843 55.429 C 100.927 55.429 101.008 55.429 101.085 55.43 C 101.123 55.43 101.16 55.43 101.196 55.431 C 101.232 55.432 101.3 55.433 101.3 55.433 C 101.3 55.433 101.302 55.333 101.302 55.333 Z" transform="matrix(1, 0, 0, 1, 46.730209, -54.696182)"></path>
  <path d="M 101.35 55.721 C 100.278 55.794 97.917 56.084 97.045 56.667" stroke-width="0.1" stroke-linecap="round" style="fill: rgb(255, 255, 255);" transform="matrix(1, 0, 0, 1, 46.730209, -54.696182)"></path>
  <path d="M 101.346 55.671 C 101.346 55.671 101.278 55.676 101.242 55.679 C 101.206 55.681 101.169 55.684 101.13 55.687 C 101.054 55.694 100.973 55.701 100.888 55.709 C 100.719 55.725 100.535 55.745 100.342 55.768 C 99.955 55.815 99.531 55.876 99.113 55.954 C 98.278 56.108 97.461 56.331 97.017 56.625 L 97.073 56.709 C 97.501 56.42 98.3 56.206 99.132 56.052 C 99.547 55.975 99.969 55.914 100.354 55.867 C 100.546 55.844 100.729 55.824 100.898 55.808 C 100.982 55.8 101.062 55.793 101.139 55.787 C 101.177 55.784 101.214 55.781 101.25 55.778 C 101.285 55.776 101.354 55.771 101.354 55.771 C 101.354 55.771 101.346 55.671 101.346 55.671 Z" transform="matrix(1, 0, 0, 1, 46.730209, -54.696182)"></path>
  <path d="M 176.843 5.201 C 176.604 12.068 170.898 17.635 164.097 17.635 C 157.296 17.635 151.976 12.068 152.215 5.201 C 152.454 -1.666 158.16 -7.233 164.961 -7.233 C 171.762 -7.233 177.082 -1.666 176.843 5.201 Z" stroke-width="1.5" fill="#FAFAFE" style="paint-order: fill;" transform="matrix(1, -0.000028, 0.000028, 1, -0.000147, 0.004641)"></path>
  <path d="M 177.593 5.201 C 177.468 8.787 175.849 12.176 173.445 14.521 C 171.041 16.866 167.626 18.385 164.071 18.385 C 160.516 18.385 157.207 16.866 154.965 14.521 C 152.725 12.176 151.34 8.787 151.465 5.201 C 151.59 1.615 153.209 -1.774 155.613 -4.119 C 158.017 -6.464 161.432 -7.983 164.987 -7.983 C 168.542 -7.983 171.851 -6.464 174.093 -4.119 C 176.333 -1.774 177.718 1.615 177.593 5.201 Z M 172.99 -3.063 C 170.931 -5.218 168.181 -6.483 164.935 -6.483 C 161.689 -6.483 158.851 -5.218 156.642 -3.063 C 154.432 -0.908 153.079 1.919 152.965 5.201 C 152.851 8.483 154.008 11.31 156.068 13.465 C 158.127 15.62 160.877 16.885 164.123 16.885 C 167.369 16.885 170.207 15.62 172.416 13.465 C 174.626 11.31 175.979 8.483 176.093 5.201 C 176.207 1.919 175.05 -0.908 172.99 -3.063 Z" style="fill: none;" transform="matrix(1, -0.000028, 0.000028, 1, -0.000147, 0.004641)"></path>
  <path d="M 177.593 5.201 C 177.468 8.787 175.849 12.176 173.445 14.521 C 171.041 16.866 167.626 18.385 164.071 18.385 C 160.516 18.385 157.207 16.866 154.965 14.521 C 152.725 12.176 151.34 8.787 151.465 5.201 C 151.59 1.615 153.209 -1.774 155.613 -4.119 C 158.017 -6.464 161.432 -7.983 164.987 -7.983 C 168.542 -7.983 171.851 -6.464 174.093 -4.119 C 176.333 -1.774 177.718 1.615 177.593 5.201 Z M 172.99 -3.063 C 170.931 -5.218 168.181 -6.483 164.935 -6.483 C 161.689 -6.483 158.851 -5.218 156.642 -3.063 C 154.432 -0.908 153.079 1.919 152.965 5.201 C 152.851 8.483 154.008 11.31 156.068 13.465 C 158.127 15.62 160.877 16.885 164.123 16.885 C 167.369 16.885 170.207 15.62 172.416 13.465 C 174.626 11.31 175.979 8.483 176.093 5.201 C 176.207 1.919 175.05 -0.908 172.99 -3.063 Z" transform="matrix(1, -0.000028, 0.000028, 1, -0.000147, 0.004641)"></path>
  <path d="M 174.67 5.201 C 174.475 10.82 169.776 15.375 164.176 15.375 C 158.575 15.375 154.193 10.82 154.388 5.201 C 154.583 -0.418 159.282 -4.973 164.883 -4.973 C 170.483 -4.973 174.865 -0.418 174.67 5.201 Z" stroke-width="1.5" style="fill: rgb(255, 255, 255); paint-order: fill;" transform="matrix(1, -0.000028, 0.000028, 1, -0.000147, 0.004641)"></path>
  <path d="M 10.891 0 C 10.891 2.962 9.631 5.788 7.702 7.724 C 5.772 9.659 2.954 10.924 0 10.924 C -2.954 10.924 -5.772 9.659 -7.702 7.724 C -9.631 5.788 -10.891 2.962 -10.891 0 C -10.891 -2.962 -9.631 -5.788 -7.702 -7.724 C -5.772 -9.659 -2.954 -10.924 0 -10.924 C 2.954 -10.924 5.772 -9.659 7.702 -7.724 C 9.631 -5.788 10.891 -2.962 10.891 0 Z M 6.64 -6.665 C 4.899 -8.411 2.647 -9.424 0 -9.424 C -2.647 -9.424 -4.899 -8.411 -6.64 -6.665 C -8.38 -4.918 -9.391 -2.657 -9.391 0 C -9.391 2.657 -8.38 4.918 -6.64 6.665 C -4.899 8.411 -2.647 9.424 0 9.424 C 2.647 9.424 4.899 8.411 6.64 6.665 C 8.38 4.918 9.391 2.657 9.391 0 C 9.391 -2.657 8.38 -4.918 6.64 -6.665 Z" style="fill: none;" transform="matrix(0.930918, -0.365228, 0.332877, 0.94361, 164.529205, 5.200905)"></path>
  <path d="M 10.891 0 C 10.891 2.962 9.631 5.788 7.702 7.724 C 5.772 9.659 2.954 10.924 0 10.924 C -2.954 10.924 -5.772 9.659 -7.702 7.724 C -9.631 5.788 -10.891 2.962 -10.891 0 C -10.891 -2.962 -9.631 -5.788 -7.702 -7.724 C -5.772 -9.659 -2.954 -10.924 0 -10.924 C 2.954 -10.924 5.772 -9.659 7.702 -7.724 C 9.631 -5.788 10.891 -2.962 10.891 0 Z M 6.64 -6.665 C 4.899 -8.411 2.647 -9.424 0 -9.424 C -2.647 -9.424 -4.899 -8.411 -6.64 -6.665 C -8.38 -4.918 -9.391 -2.657 -9.391 0 C -9.391 2.657 -8.38 4.918 -6.64 6.665 C -4.899 8.411 -2.647 9.424 0 9.424 C 2.647 9.424 4.899 8.411 6.64 6.665 C 8.38 4.918 9.391 2.657 9.391 0 C 9.391 -2.657 8.38 -4.918 6.64 -6.665 Z" style="fill: none;" transform="matrix(0.930918, -0.365228, 0.332877, 0.94361, 164.529205, 5.200905)"></path>
  <path d="M 10.891 0 C 10.891 2.962 9.631 5.788 7.702 7.724 C 5.772 9.659 2.954 10.924 0 10.924 C -2.954 10.924 -5.772 9.659 -7.702 7.724 C -9.631 5.788 -10.891 2.962 -10.891 0 C -10.891 -2.962 -9.631 -5.788 -7.702 -7.724 C -5.772 -9.659 -2.954 -10.924 0 -10.924 C 2.954 -10.924 5.772 -9.659 7.702 -7.724 C 9.631 -5.788 10.891 -2.962 10.891 0 Z M 6.64 -6.665 C 4.899 -8.411 2.647 -9.424 0 -9.424 C -2.647 -9.424 -4.899 -8.411 -6.64 -6.665 C -8.38 -4.918 -9.391 -2.657 -9.391 0 C -9.391 2.657 -8.38 4.918 -6.64 6.665 C -4.899 8.411 -2.647 9.424 0 9.424 C 2.647 9.424 4.899 8.411 6.64 6.665 C 8.38 4.918 9.391 2.657 9.391 0 C 9.391 -2.657 8.38 -4.918 6.64 -6.665 Z" style="fill: none;" transform="matrix(0.930918, -0.365228, 0.332877, 0.94361, 164.529205, 5.200905)"></path>
  <path d="M 10.891 0 C 10.891 2.962 9.631 5.788 7.702 7.724 C 5.772 9.659 2.954 10.924 0 10.924 C -2.954 10.924 -5.772 9.659 -7.702 7.724 C -9.631 5.788 -10.891 2.962 -10.891 0 C -10.891 -2.962 -9.631 -5.788 -7.702 -7.724 C -5.772 -9.659 -2.954 -10.924 0 -10.924 C 2.954 -10.924 5.772 -9.659 7.702 -7.724 C 9.631 -5.788 10.891 -2.962 10.891 0 Z M 6.64 -6.665 C 4.899 -8.411 2.647 -9.424 0 -9.424 C -2.647 -9.424 -4.899 -8.411 -6.64 -6.665 C -8.38 -4.918 -9.391 -2.657 -9.391 0 C -9.391 2.657 -8.38 4.918 -6.64 6.665 C -4.899 8.411 -2.647 9.424 0 9.424 C 2.647 9.424 4.899 8.411 6.64 6.665 C 8.38 4.918 9.391 2.657 9.391 0 C 9.391 -2.657 8.38 -4.918 6.64 -6.665 Z" style="fill: none;" transform="matrix(0.930918, -0.365228, 0.332877, 0.94361, 164.529205, 5.200905)"></path>
  <path d="M 10.891 0 C 10.891 2.962 9.631 5.788 7.702 7.724 C 5.772 9.659 2.954 10.924 0 10.924 C -2.954 10.924 -5.772 9.659 -7.702 7.724 C -9.631 5.788 -10.891 2.962 -10.891 0 C -10.891 -2.962 -9.631 -5.788 -7.702 -7.724 C -5.772 -9.659 -2.954 -10.924 0 -10.924 C 2.954 -10.924 5.772 -9.659 7.702 -7.724 C 9.631 -5.788 10.891 -2.962 10.891 0 Z M 6.64 -6.665 C 4.899 -8.411 2.647 -9.424 0 -9.424 C -2.647 -9.424 -4.899 -8.411 -6.64 -6.665 C -8.38 -4.918 -9.391 -2.657 -9.391 0 C -9.391 2.657 -8.38 4.918 -6.64 6.665 C -4.899 8.411 -2.647 9.424 0 9.424 C 2.647 9.424 4.899 8.411 6.64 6.665 C 8.38 4.918 9.391 2.657 9.391 0 C 9.391 -2.657 8.38 -4.918 6.64 -6.665 Z" style="fill: none;" transform="matrix(0.930918, -0.365228, 0.332877, 0.94361, 164.529205, 5.200905)"></path>
  <path d="M 10.891 0 C 10.891 2.962 9.631 5.788 7.702 7.724 C 5.772 9.659 2.954 10.924 0 10.924 C -2.954 10.924 -5.772 9.659 -7.702 7.724 C -9.631 5.788 -10.891 2.962 -10.891 0 C -10.891 -2.962 -9.631 -5.788 -7.702 -7.724 C -5.772 -9.659 -2.954 -10.924 0 -10.924 C 2.954 -10.924 5.772 -9.659 7.702 -7.724 C 9.631 -5.788 10.891 -2.962 10.891 0 Z M 6.64 -6.665 C 4.899 -8.411 2.647 -9.424 0 -9.424 C -2.647 -9.424 -4.899 -8.411 -6.64 -6.665 C -8.38 -4.918 -9.391 -2.657 -9.391 0 C -9.391 2.657 -8.38 4.918 -6.64 6.665 C -4.899 8.411 -2.647 9.424 0 9.424 C 2.647 9.424 4.899 8.411 6.64 6.665 C 8.38 4.918 9.391 2.657 9.391 0 C 9.391 -2.657 8.38 -4.918 6.64 -6.665 Z" style="fill: none;" transform="matrix(0.930918, -0.365228, 0.332877, 0.94361, 164.529205, 5.200905)"></path>
  <path d="M 175.42 5.201 C 175.317 8.163 173.959 10.989 171.963 12.925 C 169.966 14.86 167.104 16.125 164.15 16.125 C 161.196 16.125 158.422 14.86 156.559 12.925 C 154.697 10.989 153.535 8.163 153.638 5.201 C 153.741 2.239 155.099 -0.587 157.096 -2.523 C 159.093 -4.458 161.955 -5.723 164.909 -5.723 C 167.863 -5.723 170.637 -4.458 172.5 -2.523 C 174.361 -0.587 175.523 2.239 175.42 5.201 Z M 171.401 -1.464 C 169.721 -3.21 167.504 -4.223 164.857 -4.223 C 162.21 -4.223 159.923 -3.21 158.121 -1.464 C 156.32 0.283 155.231 2.544 155.138 5.201 C 155.046 7.858 155.978 10.119 157.658 11.866 C 159.338 13.612 161.555 14.625 164.202 14.625 C 166.849 14.625 169.136 13.612 170.938 11.866 C 172.738 10.119 173.828 7.858 173.92 5.201 C 174.013 2.544 173.08 0.283 171.401 -1.464 Z" transform="matrix(1, -0.000028, 0.000028, 1, -0.000147, 0.004641)"></path>
  <path d="M 118.698 54.049 C 116.107 53.934 114.424 55.106 113.673 55.973 C 113.5 56.173 113.219 56.251 112.981 56.155 C 111.217 55.446 110.235 56.553 109.953 57.246 C 108.856 60.073 110.974 60.654 111.871 61.311 C 111.948 61.367 112 61.453 112.027 61.546 C 113.064 65.012 115.29 65.486 116.515 65.259 C 116.69 65.226 116.872 65.27 117.007 65.384 C 118.014 66.231 119.037 66.069 119.768 65.782 C 120.976 65.308 121.267 64.761 121.763 63.414 C 121.81 63.285 121.907 63.181 122.025 63.115 C 124.385 61.81 123.762 58.59 123.1 56.992 C 123.033 56.829 123.049 56.64 123.138 56.484 C 124.379 54.305 122.887 52.8 122.075 52.49 C 120.436 51.851 119.61 52.798 119.293 53.623 C 119.197 53.874 118.959 54.061 118.698 54.049 Z" style="fill: rgb(255, 255, 255);" transform="matrix(1, 0, 0, 1, 46.730209, -54.696182)"></path>
  <path d="M 118.826 53.444 C 119.008 52.985 119.388 52.391 119.939 52.074 C 120.474 51.766 121.314 51.69 122.255 52.024 C 122.727 52.217 123.463 52.786 123.83 53.575 C 124.187 54.344 124.225 55.502 123.572 56.732 C 123.515 56.785 123.513 56.755 123.562 56.802 C 123.904 57.632 124.255 58.944 124.195 60.188 C 124.135 61.434 123.56 62.77 122.269 63.552 C 122.212 63.57 122.227 63.543 122.232 63.587 C 121.722 64.965 121.288 65.658 119.951 66.247 C 119.167 66.549 117.891 66.669 116.684 65.766 C 116.652 65.704 116.676 65.715 116.606 65.751 C 115.93 65.868 114.874 65.797 113.936 65.212 C 113.031 64.648 112.116 63.51 111.55 61.695 C 111.146 61.401 110.353 61.072 109.787 60.42 C 109.215 59.762 108.935 58.633 109.49 57.058 C 109.658 56.662 110.073 56.064 110.671 55.736 C 111.249 55.42 112.157 55.321 113.168 55.691 C 113.202 55.721 113.171 55.706 113.222 55.692 C 113.275 55.678 113.267 55.696 113.295 55.646 C 114.092 54.737 115.976 53.479 118.721 53.55 C 118.757 53.569 118.716 53.565 118.761 53.532 C 118.809 53.497 118.813 53.507 118.826 53.444 Z M 119.354 54.337 C 119.191 54.457 118.9 54.541 118.675 54.548 C 116.239 54.389 114.756 55.475 114.051 56.3 C 113.906 56.45 113.671 56.607 113.48 56.658 C 113.288 56.709 112.998 56.685 112.794 56.619 C 112.041 56.28 111.576 56.381 111.152 56.613 C 110.747 56.835 110.533 57.133 110.418 57.429 C 109.877 58.679 110.105 59.261 110.542 59.764 C 110.973 60.26 111.664 60.549 112.165 60.907 C 112.309 61.036 112.454 61.253 112.507 61.406 C 112.979 63.049 113.693 63.882 114.465 64.363 C 115.205 64.825 115.874 64.877 116.423 64.768 C 116.703 64.737 117.092 64.836 117.329 65.002 C 118.136 65.793 118.907 65.589 119.585 65.317 C 120.664 64.958 120.812 64.557 121.294 63.241 C 121.393 63.027 121.602 62.792 121.781 62.679 C 122.849 62.155 123.144 61.229 123.196 60.139 C 123.249 59.047 122.958 57.951 122.638 57.183 C 122.553 56.904 122.583 56.495 122.704 56.236 C 123.292 55.288 123.205 54.603 122.923 53.997 C 122.651 53.412 122.237 53.075 121.897 52.957 C 121.199 52.653 120.805 52.729 120.438 52.941 C 120.086 53.144 119.895 53.435 119.76 53.802 C 119.677 53.99 119.514 54.219 119.354 54.337 Z" style="fill: none;" transform="matrix(1, 0, 0, 1, 46.730209, -54.696182)"></path>
  <path d="M 118.826 53.444 C 119.008 52.985 119.388 52.391 119.939 52.074 C 120.474 51.766 121.314 51.69 122.255 52.024 C 122.727 52.217 123.463 52.786 123.83 53.575 C 124.187 54.344 124.225 55.502 123.572 56.732 C 123.515 56.785 123.513 56.755 123.562 56.802 C 123.904 57.632 124.255 58.944 124.195 60.188 C 124.135 61.434 123.56 62.77 122.269 63.552 C 122.212 63.57 122.227 63.543 122.232 63.587 C 121.722 64.965 121.288 65.658 119.951 66.247 C 119.167 66.549 117.891 66.669 116.684 65.766 C 116.652 65.704 116.676 65.715 116.606 65.751 C 115.93 65.868 114.874 65.797 113.936 65.212 C 113.031 64.648 112.116 63.51 111.55 61.695 C 111.146 61.401 110.353 61.072 109.787 60.42 C 109.215 59.762 108.935 58.633 109.49 57.058 C 109.658 56.662 110.073 56.064 110.671 55.736 C 111.249 55.42 112.157 55.321 113.168 55.691 C 113.202 55.721 113.171 55.706 113.222 55.692 C 113.275 55.678 113.267 55.696 113.295 55.646 C 114.092 54.737 115.976 53.479 118.721 53.55 C 118.757 53.569 118.716 53.565 118.761 53.532 C 118.809 53.497 118.813 53.507 118.826 53.444 Z M 119.354 54.337 C 119.191 54.457 118.9 54.541 118.675 54.548 C 116.239 54.389 114.756 55.475 114.051 56.3 C 113.906 56.45 113.671 56.607 113.48 56.658 C 113.288 56.709 112.998 56.685 112.794 56.619 C 112.041 56.28 111.576 56.381 111.152 56.613 C 110.747 56.835 110.533 57.133 110.418 57.429 C 109.877 58.679 110.105 59.261 110.542 59.764 C 110.973 60.26 111.664 60.549 112.165 60.907 C 112.309 61.036 112.454 61.253 112.507 61.406 C 112.979 63.049 113.693 63.882 114.465 64.363 C 115.205 64.825 115.874 64.877 116.423 64.768 C 116.703 64.737 117.092 64.836 117.329 65.002 C 118.136 65.793 118.907 65.589 119.585 65.317 C 120.664 64.958 120.812 64.557 121.294 63.241 C 121.393 63.027 121.602 62.792 121.781 62.679 C 122.849 62.155 123.144 61.229 123.196 60.139 C 123.249 59.047 122.958 57.951 122.638 57.183 C 122.553 56.904 122.583 56.495 122.704 56.236 C 123.292 55.288 123.205 54.603 122.923 53.997 C 122.651 53.412 122.237 53.075 121.897 52.957 C 121.199 52.653 120.805 52.729 120.438 52.941 C 120.086 53.144 119.895 53.435 119.76 53.802 C 119.677 53.99 119.514 54.219 119.354 54.337 Z" transform="matrix(1, 0, 0, 1, 46.730209, -54.696182)"></path>
  <path d="M 119.69 51.641 C 120.327 51.3 121.397 51.214 122.444 51.561 C 122.975 51.788 123.843 52.483 124.284 53.364 C 124.648 54.194 124.692 55.495 124.096 56.795 C 124.425 57.665 124.743 58.981 124.694 60.212 C 124.617 61.506 123.959 62.993 122.648 63.9 C 122.129 65.24 121.531 66.051 120.131 66.714 C 119.311 67.02 117.873 67.112 116.534 66.265 C 115.789 66.347 114.653 66.216 113.671 65.636 C 112.704 65.017 111.743 63.816 111.128 62.011 C 110.728 61.752 110.069 61.467 109.41 60.748 C 108.784 59.986 108.468 58.581 109.03 56.863 C 109.222 56.422 109.748 55.702 110.431 55.297 C 111.051 54.978 112.049 54.856 113.083 55.142 C 113.984 54.241 115.88 53.104 118.456 53.052 C 118.696 52.575 119.137 51.987 119.69 51.641 Z M 119.305 53.592 L 119.316 53.545 C 119.311 53.565 119.302 53.596 119.289 53.631 C 119.291 53.628 119.293 53.624 119.294 53.62 C 119.455 53.202 119.752 52.79 120.188 52.508 C 120.631 52.268 121.242 52.18 122.078 52.491 C 122.074 52.49 122.071 52.489 122.068 52.488 C 121.243 52.175 120.621 52.232 120.188 52.507 C 119.723 52.742 119.451 53.212 119.291 53.628 Z M 119.082 53.916 C 119.079 53.919 119.076 53.922 119.073 53.925 C 119.088 53.915 119.103 53.903 119.117 53.891 C 119.103 53.902 119.092 53.91 119.082 53.916 Z M 113.705 55.936 L 113.731 55.89 C 113.723 55.904 113.701 55.938 113.669 55.977 C 113.671 55.975 113.673 55.973 113.674 55.971 C 113.684 55.96 113.694 55.949 113.704 55.937 Z M 113.355 56.169 C 113.291 56.185 113.21 56.194 113.135 56.192 C 113.215 56.204 113.29 56.2 113.351 56.175 C 113.366 56.173 113.381 56.17 113.395 56.165 C 113.376 56.17 113.363 56.17 113.355 56.169 Z M 112.925 56.133 C 112.061 55.809 111.383 55.895 110.911 56.175 C 110.428 56.411 110.133 56.842 109.98 57.184 C 110.136 56.846 110.453 56.452 110.912 56.174 C 111.391 55.924 112.056 55.813 112.932 56.137 C 112.929 56.136 112.927 56.135 112.925 56.133 Z M 110.164 60.092 C 110.599 60.63 111.27 60.919 111.729 61.213 C 111.277 60.915 110.64 60.603 110.165 60.092 C 110.052 59.96 109.939 59.804 109.844 59.627 C 109.929 59.803 110.038 59.957 110.164 60.092 Z M 112.027 61.546 C 112.033 61.565 112.038 61.583 112.044 61.601 C 112.041 61.591 112.038 61.58 112.035 61.57 C 112.032 61.558 112.028 61.547 112.024 61.535 Z M 114.2 64.788 C 115.023 65.335 115.835 65.384 116.452 65.27 C 116.452 65.27 116.452 65.27 116.453 65.27 C 115.842 65.365 115.023 65.268 114.2 64.787 C 113.617 64.414 113.041 63.833 112.569 62.917 C 113.039 63.836 113.611 64.432 114.2 64.788 Z M 122.092 63.077 C 123.222 62.405 123.656 61.317 123.696 60.164 C 123.759 59.079 123.477 57.963 123.17 57.169 C 123.473 57.963 123.737 59.079 123.695 60.163 C 123.633 61.29 123.217 62.402 122.084 63.08 C 122.087 63.079 122.089 63.078 122.092 63.077 Z M 123.171 56.424 C 123.752 55.351 123.703 54.443 123.377 53.786 C 123.092 53.11 122.517 52.674 122.105 52.502 C 122.515 52.677 123.041 53.123 123.376 53.786 C 123.675 54.455 123.749 55.347 123.17 56.426 C 123.17 56.425 123.171 56.425 123.171 56.424 Z M 113.671 55.976 C 113.671 55.976 113.671 55.976 113.671 55.976 Z M 119.651 54.739 C 119.409 54.898 118.977 55.031 118.691 55.048 C 116.419 54.841 115.094 55.839 114.431 56.625 C 114.245 56.809 113.874 57.056 113.609 57.141 C 113.332 57.2 112.9 57.172 112.64 57.095 L 112.607 57.085 L 112.589 57.075 C 111.991 56.752 111.749 56.845 111.392 57.052 C 111.07 57.2 110.969 57.369 110.884 57.61 C 110.631 58.178 110.574 58.523 110.61 58.817 C 110.641 59.078 110.725 59.218 110.919 59.436 C 111.258 59.865 111.906 60.115 112.456 60.5 L 112.481 60.518 L 112.499 60.535 C 112.684 60.711 112.898 61.032 112.979 61.242 C 113.401 62.792 114.015 63.507 114.729 63.939 C 115.356 64.363 115.845 64.383 116.326 64.278 C 116.695 64.253 117.297 64.389 117.616 64.592 L 117.651 64.615 L 117.679 64.645 C 117.995 64.985 118.224 65.047 118.524 65.058 C 118.815 65.069 119.075 64.983 119.399 64.853 C 120.322 64.645 120.343 64.384 120.824 63.069 C 120.964 62.794 121.282 62.414 121.514 62.256 L 121.54 62.238 L 121.561 62.23 C 122.501 61.855 122.656 61.141 122.697 60.115 C 122.758 59.099 122.486 58.111 122.176 57.375 C 122.081 57.005 122.107 56.371 122.251 56.024 L 122.263 55.995 L 122.279 55.972 C 122.832 55.188 122.73 54.74 122.47 54.208 C 122.267 53.711 121.997 53.505 121.733 53.429 C 121.182 53.142 120.977 53.191 120.688 53.374 C 120.42 53.498 120.339 53.658 120.229 53.975 C 120.121 54.207 119.866 54.565 119.651 54.739 Z M 119.826 65.758 C 120.823 65.346 121.176 64.893 121.551 63.97 C 121.18 64.88 120.829 65.333 119.826 65.758 Z" style="fill: none;" transform="matrix(1, 0, 0, 1, 46.730209, -54.696182)"></path>
  <path d="M 113.036 57.373 C 113.274 58.047 112.664 59.612 111.946 59.894 C 111.228 60.176 110.652 59.513 110.414 58.839 C 110.176 58.165 110.571 57.179 111.288 56.897 C 112.006 56.615 112.798 56.698 113.036 57.373 Z" stroke-width="0.1" transform="matrix(1, 0, 0, 1, 46.730209, -54.696182)"></path>
  <path d="M 113.083 57.356 C 113.203 57.706 113.11 58.284 112.896 58.8 C 112.681 59.316 112.336 59.795 111.964 59.941 C 111.591 60.087 111.239 59.985 110.968 59.764 C 110.698 59.544 110.488 59.197 110.367 58.856 C 110.244 58.509 110.285 58.074 110.447 57.701 C 110.609 57.328 110.902 56.998 111.27 56.85 C 111.635 56.708 112.027 56.656 112.353 56.727 C 112.68 56.799 112.955 57.007 113.083 57.356 Z M 112.331 56.825 C 112.022 56.757 111.659 56.804 111.306 56.944 C 110.957 57.078 110.694 57.382 110.539 57.741 C 110.383 58.1 110.346 58.495 110.461 58.822 C 110.578 59.155 110.775 59.477 111.032 59.686 C 111.288 59.895 111.583 59.983 111.928 59.847 C 112.274 59.711 112.593 59.267 112.803 58.761 C 113.014 58.256 113.107 57.714 112.989 57.39 C 112.879 57.064 112.639 56.893 112.331 56.825 Z" transform="matrix(1, 0, 0, 1, 46.730209, -54.696182)"></path>
  <path d="M 119.994 54.55 C 120.158 55.287 121.438 56.311 122.139 56.134 C 122.84 55.958 122.944 55.03 122.78 54.293 C 122.616 53.555 121.801 52.917 121.1 53.093 C 120.4 53.269 119.83 53.812 119.994 54.55 Z" stroke-width="0.1" transform="matrix(1, 0, 0, 1, 46.730209, -54.696182)"></path>
  <path d="M 121.088 53.045 C 121.452 52.957 121.852 53.075 122.171 53.31 C 122.489 53.544 122.743 53.904 122.829 54.282 C 122.911 54.655 122.927 55.084 122.832 55.437 C 122.737 55.792 122.516 56.085 122.151 56.183 C 121.785 56.27 121.268 56.054 120.835 55.725 C 120.402 55.395 120.032 54.94 119.945 54.561 C 119.864 54.179 119.969 53.836 120.185 53.579 C 120.4 53.322 120.732 53.135 121.088 53.045 Z M 120.261 53.643 C 120.058 53.886 119.96 54.183 120.043 54.539 C 120.12 54.897 120.472 55.322 120.895 55.645 C 121.319 55.967 121.792 56.175 122.127 56.086 C 122.463 56.007 122.645 55.748 122.736 55.411 C 122.827 55.072 122.813 54.668 122.731 54.304 C 122.653 53.944 122.417 53.616 122.112 53.391 C 121.807 53.166 121.449 53.053 121.112 53.142 C 120.768 53.227 120.465 53.4 120.261 53.643 Z" transform="matrix(1, 0, 0, 1, 46.730209, -54.696182)"></path>
  <path d="M 0.669 0 A 0.669 0.685 0 0 1 0 0.685 A 0.669 0.685 0 0 1 -0.669 0 A 0.669 0.685 0 0 1 0 -0.685 A 0.669 0.685 0 0 1 0.669 0 Z" stroke-width="0.5" transform="matrix(0.930918, -0.365228, 0.332877, 0.94361, 166.679901, 4.067406)"></path>
  <path d="M 0.919 0 C 0.919 0.239 0.804 0.503 0.652 0.659 C 0.499 0.815 0.237 0.935 0 0.935 C -0.237 0.935 -0.499 0.815 -0.652 0.659 C -0.804 0.503 -0.919 0.239 -0.919 0 C -0.919 -0.239 -0.804 -0.503 -0.652 -0.659 C -0.499 -0.815 -0.237 -0.935 0 -0.935 C 0.237 -0.935 0.499 -0.815 0.652 -0.659 C 0.804 -0.503 0.919 -0.239 0.919 0 Z M 0.294 -0.31 C 0.205 -0.402 0.133 -0.435 0 -0.435 C -0.133 -0.435 -0.205 -0.402 -0.294 -0.31 C -0.384 -0.217 -0.419 -0.139 -0.419 0 C -0.419 0.139 -0.384 0.217 -0.294 0.31 C -0.204 0.402 -0.133 0.435 0 0.435 C 0.133 0.435 0.205 0.402 0.294 0.31 C 0.384 0.217 0.419 0.139 0.419 0 C 0.419 -0.139 0.384 -0.217 0.294 -0.31 Z" transform="matrix(0.930918, -0.365228, 0.332877, 0.94361, 166.679901, 4.067406)"></path>
  <path d="M 0.1 0 A 0.1 0.102 0 0 1 0 0.102 A 0.1 0.102 0 0 1 -0.1 0 A 0.1 0.102 0 0 1 0 -0.102 A 0.1 0.102 0 0 1 0.1 0 Z" stroke-width="0.4" transform="matrix(0.930918, -0.365228, 0.332877, 0.94361, 166.461197, 3.74691)" fill="#FAFAFE" style=""></path>
  <path d="M 0.3 0 C 0.3 0.068 0.256 0.168 0.214 0.212 C 0.17 0.256 0.069 0.302 0 0.302 C -0.069 0.302 -0.17 0.256 -0.214 0.212 C -0.256 0.168 -0.3 0.068 -0.3 0 C -0.3 -0.068 -0.256 -0.168 -0.214 -0.212 C -0.17 -0.256 -0.069 -0.302 0 -0.302 C 0.069 -0.302 0.17 -0.256 0.214 -0.212 C 0.256 -0.168 0.3 -0.068 0.3 0 Z M -0.072 0.068 C -0.065 0.075 -0.014 0.098 0 0.098 C 0.014 0.098 0.065 0.075 0.072 0.068 C 0.079 0.061 0.1 0.012 0.1 0 C 0.1 -0.012 0.079 -0.061 0.072 -0.068 C 0.065 -0.075 0.014 -0.098 0 -0.098 C -0.014 -0.098 -0.065 -0.075 -0.072 -0.068 C -0.079 -0.061 -0.1 -0.012 -0.1 0 C -0.1 0.012 -0.079 0.061 -0.072 0.068 Z" style="fill: none;" transform="matrix(0.930918, -0.365228, 0.332877, 0.94361, 166.461197, 3.74691)"></path>
  <path d="M 0.3 0 C 0.3 0.068 0.256 0.168 0.214 0.212 C 0.17 0.256 0.069 0.302 0 0.302 C -0.069 0.302 -0.17 0.256 -0.214 0.212 C -0.256 0.168 -0.3 0.068 -0.3 0 C -0.3 -0.068 -0.256 -0.168 -0.214 -0.212 C -0.17 -0.256 -0.069 -0.302 0 -0.302 C 0.069 -0.302 0.17 -0.256 0.214 -0.212 C 0.256 -0.168 0.3 -0.068 0.3 0 Z M -0.072 0.068 C -0.065 0.075 -0.014 0.098 0 0.098 C 0.014 0.098 0.065 0.075 0.072 0.068 C 0.079 0.061 0.1 0.012 0.1 0 C 0.1 -0.012 0.079 -0.061 0.072 -0.068 C 0.065 -0.075 0.014 -0.098 0 -0.098 C -0.014 -0.098 -0.065 -0.075 -0.072 -0.068 C -0.079 -0.061 -0.1 -0.012 -0.1 0 C -0.1 0.012 -0.079 0.061 -0.072 0.068 Z" style="fill: rgb(250, 250, 254);" transform="matrix(0.930918, -0.365228, 0.332877, 0.94361, 166.461197, 3.74691)"></path>
  <ellipse rx="0.669" ry="0.685" stroke-width="0.5" transform="matrix(0.930918, -0.365228, 0.332877, 0.94361, 161.936508, 5.928307)"></ellipse>
  <path d="M 0.919 0 C 0.919 0.239 0.804 0.503 0.652 0.659 C 0.499 0.815 0.237 0.935 0 0.935 C -0.237 0.935 -0.499 0.815 -0.652 0.659 C -0.804 0.503 -0.919 0.239 -0.919 0 C -0.919 -0.239 -0.804 -0.503 -0.652 -0.659 C -0.499 -0.815 -0.237 -0.935 0 -0.935 C 0.237 -0.935 0.499 -0.815 0.652 -0.659 C 0.804 -0.503 0.919 -0.239 0.919 0 Z M 0.294 -0.31 C 0.205 -0.402 0.133 -0.435 0 -0.435 C -0.133 -0.435 -0.205 -0.402 -0.294 -0.31 C -0.384 -0.217 -0.419 -0.139 -0.419 0 C -0.419 0.139 -0.384 0.217 -0.294 0.31 C -0.204 0.402 -0.133 0.435 0 0.435 C 0.133 0.435 0.205 0.402 0.294 0.31 C 0.384 0.217 0.419 0.139 0.419 0 C 0.419 -0.139 0.384 -0.217 0.294 -0.31 Z" transform="matrix(0.930918, -0.365228, 0.332877, 0.94361, 161.936508, 5.928307)"></path>
  <ellipse rx="0.1" ry="0.102" stroke-width="0.4" transform="matrix(0.930918, -0.365228, 0.332877, 0.94361, 161.717804, 5.607704)" fill="#FAFAFE" style=""></ellipse>
  <path d="M 0.3 0 C 0.3 0.068 0.256 0.168 0.214 0.212 C 0.17 0.256 0.069 0.302 0 0.302 C -0.069 0.302 -0.17 0.256 -0.214 0.212 C -0.256 0.168 -0.3 0.068 -0.3 0 C -0.3 -0.068 -0.256 -0.168 -0.214 -0.212 C -0.17 -0.256 -0.069 -0.302 0 -0.302 C 0.069 -0.302 0.17 -0.256 0.214 -0.212 C 0.256 -0.168 0.3 -0.068 0.3 0 Z M -0.072 0.068 C -0.065 0.075 -0.014 0.098 0 0.098 C 0.014 0.098 0.065 0.075 0.072 0.068 C 0.079 0.061 0.1 0.012 0.1 0 C 0.1 -0.012 0.079 -0.061 0.072 -0.068 C 0.065 -0.075 0.014 -0.098 0 -0.098 C -0.014 -0.098 -0.065 -0.075 -0.072 -0.068 C -0.079 -0.061 -0.1 -0.012 -0.1 0 C -0.1 0.012 -0.079 0.061 -0.072 0.068 Z" style="fill: rgb(250, 250, 254);" transform="matrix(0.930918, -0.365228, 0.332877, 0.94361, 161.717804, 5.607704)"></path>
  <path d="M 118.442 62.973 C 118.56 63.358 118.793 63.244 118.89 63.211 C 119.113 63.137 119.249 63.002 119.115 62.709 C 119.094 62.649 119.124 62.517 119.426 62.398 C 119.611 62.325 119.549 61.437 118.42 61.88 C 117.344 62.302 117.812 63.031 118.031 62.945 C 118.206 62.877 118.41 62.866 118.442 62.973 Z" transform="matrix(1, 0, 0, 1, 46.730209, -54.696182)"></path>
  <path d="M 118.89 63.211 L 118.819 62.971 L 118.89 63.211 Z M 118.442 62.973 L 118.679 62.893 L 118.442 62.973 Z M 119.115 62.709 L 118.891 62.822 L 118.886 62.811 L 118.882 62.801 L 119.115 62.709 Z M 118.961 63.451 C 118.946 63.456 118.786 63.527 118.624 63.498 C 118.421 63.461 118.281 63.3 118.206 63.054 L 118.679 62.893 C 118.7 62.965 118.722 62.993 118.729 63.001 C 118.734 63.005 118.73 63.001 118.723 63 C 118.72 62.999 118.725 63.001 118.743 62.996 C 118.752 62.994 118.762 62.991 118.774 62.987 C 118.781 62.985 118.787 62.982 118.794 62.98 C 118.801 62.977 118.81 62.974 118.819 62.971 L 118.961 63.451 Z M 118.206 63.054 C 118.222 63.106 118.258 63.133 118.277 63.142 C 118.292 63.15 118.295 63.147 118.277 63.146 C 118.241 63.145 118.179 63.156 118.114 63.181 L 117.948 62.71 C 118.057 62.667 118.185 62.637 118.303 62.641 C 118.396 62.643 118.612 62.674 118.679 62.893 L 118.206 63.054 Z M 118.114 63.181 C 117.916 63.259 117.746 63.138 117.666 63.05 C 117.57 62.946 117.501 62.794 117.493 62.621 C 117.477 62.24 117.746 61.876 118.337 61.644 L 118.503 62.116 C 118.018 62.306 117.984 62.517 117.987 62.585 C 117.989 62.636 118.01 62.677 118.03 62.699 C 118.066 62.737 118.036 62.675 117.948 62.71 L 118.114 63.181 Z M 118.819 62.971 C 118.862 62.957 118.89 62.943 118.908 62.931 C 118.925 62.92 118.926 62.915 118.923 62.92 C 118.919 62.926 118.921 62.929 118.921 62.919 C 118.92 62.906 118.915 62.875 118.891 62.822 L 119.339 62.597 C 119.424 62.782 119.452 62.983 119.349 63.165 C 119.255 63.33 119.089 63.409 118.961 63.451 L 118.819 62.971 Z M 118.882 62.801 C 118.839 62.676 118.869 62.537 118.956 62.423 C 119.039 62.315 119.17 62.23 119.343 62.162 L 119.509 62.634 C 119.38 62.685 119.345 62.725 119.342 62.729 C 119.342 62.729 119.35 62.718 119.354 62.696 C 119.359 62.675 119.358 62.647 119.348 62.618 L 118.882 62.801 Z M 119.343 62.162 C 119.282 62.186 119.261 62.23 119.259 62.235 C 119.255 62.243 119.258 62.24 119.259 62.223 C 119.26 62.19 119.249 62.143 119.219 62.104 C 119.18 62.052 119.021 61.913 118.503 62.116 L 118.337 61.644 C 118.949 61.404 119.385 61.487 119.613 61.787 C 119.716 61.924 119.757 62.085 119.753 62.225 C 119.751 62.295 119.737 62.369 119.706 62.438 C 119.676 62.504 119.617 62.592 119.509 62.634 L 119.343 62.162 Z" transform="matrix(1, 0, 0, 1, 46.730209, -54.696182)"></path>
  <path d="M 118.928 62.246 L 118.932 62.244 L 118.983 62.358 L 119.102 62.282 C 119.12 62.271 119.145 62.256 119.176 62.24 L 119.131 62.141 L 118.666 62.376 Z M 118.534 63.99 C 118.361 63.934 118.185 63.821 118.04 63.683 C 117.89 63.691 117.745 63.677 117.657 63.641 C 117.509 63.581 117.363 63.456 117.298 63.388 C 117.158 63.218 117.024 62.907 116.993 62.642 C 116.998 62.361 117.106 61.994 117.303 61.757 C 117.485 61.538 117.808 61.322 118.154 61.179 C 118.515 61.044 118.902 60.98 119.184 61.017 C 119.493 61.058 119.825 61.271 120.013 61.487 C 120.158 61.712 120.259 62.031 120.253 62.239 C 120.25 62.349 120.21 62.52 120.161 62.645 C 120.127 62.715 120.022 62.841 119.886 62.957 C 119.876 63.112 119.842 63.273 119.783 63.413 C 119.58 63.68 119.277 63.87 119.119 63.925 C 119.122 63.923 118.842 64.001 118.534 63.99 Z" style="fill: none;" transform="matrix(1, 0, 0, 1, 46.730209, -54.696182)"></path>
  <path d="M 119.954 62.932 C 120.911 62.42 123.084 61.402 124.118 61.436" stroke-width="0.1" stroke-linecap="round" style="fill: rgb(255, 255, 255);" transform="matrix(1, 0, 0, 1, 46.730209, -54.696182)"></path>
  <path d="M 119.93 62.888 C 120.41 62.631 121.195 62.248 121.989 61.933 C 122.386 61.775 122.787 61.634 123.153 61.535 C 123.336 61.486 123.512 61.446 123.674 61.42 C 123.755 61.407 123.833 61.398 123.907 61.392 C 123.982 61.386 124.114 61.386 124.114 61.386 C 124.115 61.386 124.119 61.486 124.119 61.486 C 124.119 61.486 124.053 61.485 124.019 61.486 C 123.985 61.487 123.951 61.489 123.915 61.491 C 123.843 61.497 123.769 61.506 123.689 61.519 C 123.531 61.544 123.36 61.583 123.179 61.632 C 122.816 61.73 122.421 61.869 122.026 62.026 C 121.235 62.339 120.455 62.721 119.978 62.976 Z" transform="matrix(1, 0, 0, 1, 46.730209, -54.696182)"></path>
  <path d="M 120.066 63.221 C 121.064 62.803 123.316 61.999 124.341 62.133" stroke-width="0.1" stroke-linecap="round" style="fill: rgb(255, 255, 255);" transform="matrix(1, 0, 0, 1, 46.730209, -54.696182)"></path>
  <path d="M 120.047 63.175 C 120.547 62.966 121.362 62.659 122.179 62.422 C 122.588 62.303 123 62.202 123.373 62.138 C 123.559 62.107 123.738 62.084 123.901 62.074 C 123.983 62.069 124.062 62.067 124.136 62.069 C 124.21 62.07 124.342 62.083 124.342 62.083 C 124.343 62.083 124.337 62.183 124.338 62.183 C 124.338 62.183 124.272 62.175 124.238 62.173 C 124.204 62.171 124.17 62.169 124.134 62.169 C 124.062 62.167 123.987 62.169 123.907 62.174 C 123.747 62.184 123.574 62.206 123.389 62.237 C 123.02 62.3 122.614 62.4 122.207 62.518 C 121.393 62.754 120.583 63.058 120.085 63.267 Z" style="fill: none;" transform="matrix(1, 0, 0, 1, 46.730209, -54.696182)"></path>
  <path d="M 120.047 63.175 C 120.547 62.966 121.362 62.659 122.179 62.422 C 122.588 62.303 123 62.202 123.373 62.138 C 123.559 62.107 123.738 62.084 123.901 62.074 C 123.983 62.069 124.062 62.067 124.136 62.069 C 124.21 62.07 124.342 62.083 124.342 62.083 C 124.343 62.083 124.337 62.183 124.338 62.183 C 124.338 62.183 124.272 62.175 124.238 62.173 C 124.204 62.171 124.17 62.169 124.134 62.169 C 124.062 62.167 123.987 62.169 123.907 62.174 C 123.747 62.184 123.574 62.206 123.389 62.237 C 123.02 62.3 122.614 62.4 122.207 62.518 C 121.393 62.754 120.583 63.058 120.085 63.267 Z" style="fill: none;" transform="matrix(1, 0, 0, 1, 46.730209, -54.696182)"></path>
  <path d="M 120.047 63.175 C 120.547 62.966 121.362 62.659 122.179 62.422 C 122.588 62.303 123 62.202 123.373 62.138 C 123.559 62.107 123.738 62.084 123.901 62.074 C 123.983 62.069 124.062 62.067 124.136 62.069 C 124.21 62.07 124.342 62.083 124.342 62.083 C 124.343 62.083 124.337 62.183 124.338 62.183 C 124.338 62.183 124.272 62.175 124.238 62.173 C 124.204 62.171 124.17 62.169 124.134 62.169 C 124.062 62.167 123.987 62.169 123.907 62.174 C 123.747 62.184 123.574 62.206 123.389 62.237 C 123.02 62.3 122.614 62.4 122.207 62.518 C 121.393 62.754 120.583 63.058 120.085 63.267 Z" transform="matrix(1, 0, 0, 1, 46.730209, -54.696182)"></path>
  <path d="M 120.132 63.557 C 121.16 63.23 123.469 62.634 124.478 62.86" stroke-width="0.1" stroke-linecap="round" style="fill: rgb(255, 255, 255);" transform="matrix(1, 0, 0, 1, 46.730209, -54.696182)"></path>
  <path d="M 120.117 63.509 C 120.632 63.346 121.469 63.114 122.303 62.952 C 122.72 62.871 123.138 62.807 123.514 62.778 C 123.702 62.763 123.882 62.757 124.045 62.762 C 124.127 62.764 124.206 62.769 124.28 62.777 C 124.353 62.785 124.483 62.81 124.483 62.81 C 124.485 62.81 124.469 62.909 124.47 62.909 C 124.47 62.909 124.405 62.896 124.372 62.891 C 124.338 62.885 124.304 62.881 124.269 62.877 C 124.197 62.869 124.122 62.864 124.042 62.862 C 123.882 62.857 123.708 62.863 123.522 62.877 C 123.149 62.906 122.737 62.97 122.322 63.05 C 121.492 63.211 120.66 63.441 120.147 63.605 Z" transform="matrix(1, 0, 0, 1, 46.730209, -54.696182)"></path>
  <path d="M 119.966 63.032 C 120.49 62.867 121.354 62.627 122.208 62.461 C 122.634 62.378 123.081 62.311 123.475 62.28 C 123.675 62.264 123.878 62.257 124.057 62.262 C 124.149 62.265 124.249 62.271 124.334 62.28 C 124.368 62.284 124.409 62.29 124.447 62.296 L 124.483 62.31 C 124.65 62.374 124.893 62.508 124.935 62.595 C 124.955 62.638 124.974 62.71 124.977 62.735 C 124.98 62.75 124.981 62.77 124.982 62.787 L 125.837 63.692 L 124.372 63.399 C 124.371 63.399 124.306 63.386 124.285 63.383 C 124.265 63.38 124.248 63.378 124.214 63.374 C 124.153 63.367 124.096 63.363 124.026 63.362 C 123.883 63.357 123.737 63.362 123.561 63.376 C 123.207 63.402 122.823 63.462 122.417 63.541 C 121.606 63.697 120.803 63.92 120.299 64.081 L 119.82 64.235 L 119.491 63.183 Z" style="fill: none;" transform="matrix(1, 0, 0, 1, 46.730209, -54.696182)"></path>
  <path d="M 117.599 63.867 C 116.556 64.139 114.281 64.867 113.519 65.604" stroke-width="0.1" stroke-linecap="round" style="fill: rgb(255, 255, 255);" transform="matrix(1, 0, 0, 1, 46.730209, -54.696182)"></path>
  <path d="M 117.586 63.819 C 117.586 63.819 117.52 63.836 117.485 63.846 C 117.45 63.855 117.414 63.865 117.376 63.875 C 117.302 63.896 117.223 63.918 117.142 63.941 C 116.978 63.989 116.8 64.043 116.614 64.102 C 116.241 64.22 115.834 64.36 115.436 64.515 C 114.639 64.823 113.872 65.195 113.484 65.568 L 113.554 65.64 C 113.928 65.276 114.679 64.915 115.472 64.608 C 115.868 64.454 116.272 64.315 116.644 64.197 C 116.829 64.138 117.006 64.085 117.169 64.038 C 117.251 64.014 117.329 63.992 117.403 63.971 C 117.44 63.961 117.476 63.951 117.511 63.942 C 117.545 63.933 117.612 63.915 117.612 63.915 C 117.612 63.915 117.586 63.819 117.586 63.819 Z" transform="matrix(1, 0, 0, 1, 46.730209, -54.696182)"></path>
  <path d="M 117.693 64.162 C 116.679 64.534 114.476 65.478 113.782 66.286" stroke-width="0.1" stroke-linecap="round" style="fill: rgb(255, 255, 255);" transform="matrix(1, 0, 0, 1, 46.730209, -54.696182)"></path>
  <path d="M 117.675 64.115 C 117.675 64.115 117.611 64.139 117.577 64.152 C 117.543 64.164 117.508 64.178 117.472 64.192 C 117.4 64.219 117.323 64.249 117.244 64.28 C 117.085 64.344 116.912 64.414 116.732 64.491 C 116.372 64.645 115.978 64.824 115.595 65.016 C 114.829 65.4 114.097 65.844 113.744 66.253 L 113.82 66.319 C 114.161 65.92 114.877 65.488 115.64 65.105 C 116.021 64.914 116.412 64.736 116.771 64.583 C 116.951 64.507 117.122 64.436 117.281 64.373 C 117.36 64.342 117.436 64.312 117.507 64.285 C 117.543 64.271 117.578 64.258 117.612 64.245 C 117.646 64.233 117.711 64.209 117.711 64.209 C 117.71 64.209 117.676 64.115 117.675 64.115 Z" transform="matrix(1, 0, 0, 1, 46.730209, -54.696182)"></path>
  <path d="M 117.851 64.461 C 116.87 64.923 114.753 66.063 114.129 66.93" stroke-width="0.1" stroke-linecap="round" style="fill: rgb(255, 255, 255);" transform="matrix(1, 0, 0, 1, 46.730209, -54.696182)"></path>
  <path d="M 117.829 64.416 C 117.829 64.416 117.767 64.445 117.734 64.461 C 117.701 64.477 117.667 64.493 117.632 64.51 C 117.563 64.544 117.489 64.581 117.413 64.62 C 117.259 64.697 117.093 64.783 116.92 64.876 C 116.573 65.061 116.196 65.275 115.83 65.501 C 115.098 65.953 114.406 66.462 114.088 66.901 L 114.17 66.959 C 114.476 66.531 115.154 66.036 115.882 65.586 C 116.247 65.361 116.621 65.149 116.967 64.964 C 117.14 64.871 117.305 64.786 117.457 64.709 C 117.534 64.67 117.607 64.634 117.676 64.6 C 117.711 64.583 117.745 64.567 117.777 64.551 C 117.81 64.536 117.873 64.506 117.873 64.506 C 117.873 64.506 117.829 64.416 117.829 64.416 Z" transform="matrix(1, 0, 0, 1, 46.730209, -54.696182)"></path>
</svg>