<svg viewBox="98.562 -3.177 30.897 31.514" height="36px">
  <path fill-rule="evenodd" clip-rule="evenodd" d="M 97.481 9.545 C 95.871 8.074 93.493 7.743 91.882 9.214 L 82.455 16.747 C 82.246 16.939 81.733 17.56 81.68 17.833 C 80.655 23.157 80.537 29.351 81.414 34.7 L 81.831 36.465 L 89.073 36.465 L 88.99 25.314 C 88.99 24.585 89.331 24.259 90.098 24.259 L 99.301 24.135 C 99.538 24.136 99.874 24.491 99.881 24.963 L 100.07 36.481 L 107.402 36.493 L 107.689 34.88 C 108.566 29.531 108.458 23.381 107.432 18.057 C 107.38 17.784 106.857 17.115 106.647 16.923 L 97.481 9.545 Z M 90.785 7.947 C 92.263 6.483 95.759 6.019 97.702 7.545 L 108.084 15.826 C 108.714 16.402 109.015 16.786 109.173 17.604 C 110.254 23.22 110.334 28.97 109.409 34.611 L 109.075 36.651 C 108.936 37.494 108.174 38.116 107.277 38.116 L 99.565 38.116 C 98.799 38.116 98.178 37.524 98.178 36.795 L 98.178 25.851 L 91.021 25.851 L 91.021 36.795 C 91.021 37.524 90.4 38.116 89.634 38.116 L 81.921 38.116 C 81.025 38.116 80.262 37.494 80.124 36.651 L 79.79 34.611 C 78.865 28.97 78.944 23.22 80.026 17.604 C 80.183 16.786 80.607 16.036 81.237 15.46 L 90.785 7.947 Z" style="" transform="matrix(1, 0, 0, 1, 19.410885, -9.778334)"></path>
</svg>