<svg viewBox="137.107 -23.239 36.152 36.713" height="36px">
  <path d="M 31.26 5.774 C 31.26 5.774 29.444 4.134 28.372 3.44 C 27.3 2.746 26.119 2.148 24.918 1.692 C 22.518 0.78 19.871 0.383 17.307 0.528 C 14.745 0.688 12.168 1.403 9.888 2.585 C 7.617 3.783 5.56 5.491 3.965 7.503 C 3.818 7.736 3.703 8.143 3.707 8.418 C 3.768 8.687 3.956 9.078 4.172 9.248 C 4.387 9.418 4.811 9.51 5.087 9.506 C 5.356 9.446 5.724 9.24 5.916 9.042 C 7.409 7.12 9.263 5.621 11.456 4.567 C 13.641 3.495 15.962 2.965 18.396 2.98 C 22.827 2.948 26.703 4.72 29.62 7.637 C 32.537 10.554 34.277 14.428 34.277 18.859 C 34.277 23.29 32.537 27.165 29.62 30.082 C 26.703 32.999 22.829 34.771 18.398 34.739 C 15.964 34.754 13.641 34.223 11.456 33.151 C 9.263 32.097 7.411 30.601 5.918 28.679 C 5.827 28.575 5.666 28.436 5.549 28.362 C 5.424 28.301 5.224 28.236 5.088 28.212 C 4.949 28.203 4.737 28.213 4.604 28.25 C 4.472 28.287 4.28 28.384 4.172 28.47 C 4.064 28.555 3.931 28.721 3.857 28.838 C 3.796 28.962 3.723 29.162 3.707 29.299 C 3.691 29.436 3.707 29.65 3.745 29.782 C 3.782 29.915 3.885 30.102 3.964 30.215 C 5.503 32.155 7.474 33.816 9.647 35.002 C 11.829 36.174 14.296 36.917 16.762 37.145 C 19.229 37.357 21.79 37.061 24.144 36.293 C 26.493 35.51 28.732 34.23 30.584 32.586 C 32.436 30.942 33.972 28.871 35.028 26.631 C 36.069 24.385 36.674 21.878 36.748 19.403 C 36.822 16.927 36.368 14.389 35.463 12.084 C 34.543 9.785 33.006 7.531 31.261 5.774 L 30.322 6.934 C 31.971 8.573 33.219 10.473 34.069 12.637 C 34.933 14.795 35.318 17.034 35.248 19.358 C 35.179 21.681 34.66 23.893 33.669 25.996 C 32.691 28.105 31.326 29.921 29.588 31.465 C 27.849 33.008 25.884 34.148 23.674 34.869 C 21.469 35.604 19.21 35.865 16.895 35.651 C 14.579 35.452 12.402 34.796 10.362 33.683 C 8.314 32.582 6.575 31.118 5.143 29.287 C 5.143 29.298 5.186 29.368 5.189 29.376 C 5.191 29.384 5.197 29.468 5.196 29.476 C 5.195 29.485 5.163 29.561 5.165 29.572 C 5.155 29.576 5.107 29.643 5.1 29.648 C 5.093 29.654 5.018 29.692 5.01 29.694 C 5.002 29.696 4.922 29.696 4.91 29.701 C 4.9 29.693 4.828 29.669 4.815 29.67 C 4.809 29.658 4.749 29.607 4.738 29.605 C 6.35 31.648 8.464 33.355 10.801 34.501 C 13.146 35.629 15.796 36.235 18.398 36.239 C 23.136 36.206 27.575 34.248 30.681 31.143 C 33.786 28.037 35.777 23.597 35.777 18.859 C 35.777 14.121 34.159 9.261 31.054 6.155 C 27.948 3.05 23.136 1.513 18.398 1.48 C 15.796 1.484 13.146 2.09 10.801 3.218 C 8.464 4.363 6.35 6.071 4.739 8.113 C 4.769 8.121 4.901 8.047 4.911 8.017 C 4.927 8.044 5.09 8.062 5.101 8.07 C 5.111 8.078 5.167 8.233 5.197 8.242 C 5.17 8.259 5.129 8.404 5.144 8.431 C 6.628 6.532 8.443 5.024 10.583 3.915 C 12.716 2.79 14.99 2.16 17.397 2.025 C 19.802 1.873 22.132 2.238 24.386 3.094 C 25.512 3.522 26.551 4.049 27.557 4.699 C 28.061 5.025 28.53 5.365 28.997 5.742 C 29.464 6.119 30.381 6.987 30.381 6.987 C 30.366 6.974 31.292 5.797 31.26 5.774 Z" transform="matrix(1, 0, 0, 1, 136.502563, -23.738031)"></path>
  <path d="M 8.883 27.136 C 9.012 27.132 9.391 27.029 9.572 26.928 C 9.735 26.8 9.937 26.555 10.03 26.37 C 10.095 26.173 10.126 25.857 10.101 25.652 C 10.045 25.453 9.895 25.173 9.76 25.015 L 4.847 20.102 L 23.66 20.102 C 23.926 20.064 24.331 19.895 24.536 19.721 C 24.702 19.509 24.884 19.127 24.884 18.859 C 24.884 18.592 24.703 18.209 24.537 17.997 C 24.332 17.823 23.955 17.654 23.689 17.617 L 4.847 17.617 L 9.761 12.703 C 9.858 12.601 9.966 12.442 10.03 12.316 C 10.08 12.185 10.126 11.974 10.136 11.833 C 10.131 11.692 10.091 11.48 10.045 11.347 C 9.986 11.219 9.866 11.039 9.772 10.934 C 9.668 10.84 9.491 10.714 9.36 10.661 C 9.229 10.608 9.015 10.576 8.874 10.571 C 8.732 10.58 8.522 10.627 8.391 10.677 C 8.265 10.74 8.089 10.865 7.987 10.963 L 0.969 17.981 C 0.876 18.083 0.759 18.259 0.699 18.383 C 0.653 18.513 0.604 18.721 0.604 18.859 C 0.604 18.997 0.653 19.205 0.699 19.335 C 0.759 19.46 0.877 19.636 0.969 19.739 L 8.004 26.773 C 8.106 26.866 8.281 26.983 8.406 27.043 C 8.537 27.089 8.745 27.13 8.883 27.137 L 8.881 25.637 C 8.89 25.645 8.97 25.66 8.981 25.657 C 8.986 25.667 9.053 25.711 9.064 25.712 L 2.029 18.677 C 2.03 18.688 2.074 18.754 2.085 18.761 C 2.082 18.772 2.104 18.851 2.104 18.859 C 2.104 18.868 2.081 18.948 2.085 18.958 C 2.075 18.963 2.03 19.03 2.029 19.041 L 9.081 11.989 C 9.07 11.99 9.002 12.038 8.997 12.048 C 8.987 12.045 8.909 12.062 8.898 12.07 C 8.886 12.062 8.805 12.055 8.797 12.051 C 8.789 12.048 8.723 11.996 8.712 11.995 C 8.711 11.984 8.666 11.915 8.655 11.91 C 8.659 11.899 8.644 11.818 8.636 11.809 C 8.644 11.8 8.662 11.72 8.658 11.709 C 8.669 11.704 8.699 11.653 8.7 11.642 L 2.506 17.836 L 1.225 19.116 L 3.036 19.116 L 23.631 19.116 C 23.62 19.088 23.484 19.027 23.456 19.037 C 23.466 19.009 23.384 18.872 23.384 18.859 C 23.384 18.846 23.467 18.709 23.456 18.681 C 23.484 18.69 23.648 18.629 23.66 18.601 L 3.036 18.601 L 1.225 18.601 L 2.506 19.882 L 8.701 26.077 C 8.704 26.057 8.648 25.953 8.63 25.945 C 8.644 25.93 8.655 25.812 8.645 25.796 C 8.664 25.791 8.738 25.701 8.74 25.68 C 8.753 25.689 8.883 27.136 8.883 27.136 Z" transform="matrix(1, 0, 0, 1, 136.502563, -23.738031)"></path>
</svg>