<svg viewBox="112.73 1.962 36.727 36.728" height="36px">
  <g clip-path="url(#clip0_3118_7064)" transform="matrix(1, 0, 0, 1, 112.41069, 1.491976)">
    <path d="M 20.219 27.105 C 20.219 27.105 20.467 26.606 20.821 26.342 C 21.193 26.104 21.727 25.936 22.168 25.916 L 22.803 25.916 L 22.803 23.592 L 22.174 23.592 C 21.733 23.572 21.185 23.417 20.822 23.166 C 20.459 22.915 20.122 22.463 19.947 22.058 C 19.892 21.909 19.825 21.754 19.754 21.596 C 19.588 21.185 19.503 20.627 19.581 20.191 C 19.659 19.754 19.932 19.258 20.231 18.93 L 20.684 18.476 L 19.042 16.834 L 18.595 17.282 C 18.267 17.58 17.764 17.842 17.331 17.937 C 16.892 17.998 16.335 17.929 15.924 17.763 C 15.773 17.694 15.624 17.633 15.468 17.573 C 15.062 17.398 14.619 17.05 14.354 16.697 C 14.117 16.324 13.948 15.791 13.928 15.349 L 13.928 14.714 L 11.603 14.714 L 11.603 15.343 C 11.582 15.785 11.427 16.334 11.176 16.697 C 10.924 17.06 10.472 17.397 10.066 17.572 C 9.917 17.626 9.763 17.693 9.606 17.763 C 9.196 17.929 8.636 18.014 8.201 17.936 C 7.765 17.858 7.27 17.585 6.942 17.287 L 6.488 16.834 L 4.848 18.474 L 5.296 18.921 C 5.594 19.248 5.874 19.75 5.951 20.186 C 6.029 20.622 5.944 21.181 5.779 21.592 C 5.71 21.743 5.648 21.891 5.589 22.048 C 5.414 22.454 5.065 22.898 4.711 23.163 C 4.338 23.4 3.804 23.569 3.362 23.588 L 2.728 23.589 L 2.728 25.912 L 3.357 25.912 C 3.798 25.932 4.338 26.101 4.71 26.339 C 5.064 26.604 5.41 27.043 5.585 27.449 C 5.64 27.598 5.706 27.752 5.777 27.91 C 5.943 28.32 6.027 28.878 5.949 29.314 C 5.872 29.75 5.599 30.245 5.302 30.573 L 4.848 31.027 L 6.49 32.669 L 6.938 32.221 C 7.265 31.923 7.769 31.661 8.202 31.567 C 8.641 31.505 9.197 31.574 9.607 31.739 C 9.759 31.808 9.907 31.87 10.064 31.929 C 10.47 32.104 10.914 32.452 11.178 32.806 C 11.416 33.179 11.584 33.712 11.604 34.153 L 11.604 34.788 L 13.928 34.788 L 13.928 34.16 C 13.948 33.718 14.117 33.179 14.354 32.807 C 14.618 32.453 15.057 32.107 15.462 31.932 C 15.613 31.876 15.766 31.809 15.924 31.739 C 16.335 31.573 16.893 31.489 17.328 31.566 C 17.764 31.644 18.259 31.918 18.587 32.215 L 19.041 32.669 L 20.682 31.024 L 20.235 30.576 C 19.937 30.248 19.659 29.748 19.581 29.312 C 19.503 28.877 19.588 28.317 19.754 27.907 C 19.823 27.754 19.885 27.606 19.944 27.449 L 20.638 27.714 C 20.407 27.427 20.178 27.143 20.219 27.105 Z M 22.822 28.33 L 22.194 28.33 C 22.11 28.539 22.024 28.737 21.953 28.899 L 22.406 29.353 C 22.79 29.782 23.097 30.461 23.097 31.036 C 23.097 31.611 22.787 32.294 22.403 32.723 L 20.727 34.399 C 20.298 34.783 19.619 35.089 19.044 35.089 C 18.469 35.089 17.786 34.778 17.357 34.395 L 16.906 33.942 C 16.715 34.029 16.51 34.111 16.338 34.179 L 16.338 34.81 C 16.309 35.388 16.026 36.069 15.638 36.498 C 15.209 36.886 14.527 37.169 13.95 37.198 L 11.579 37.198 C 11.001 37.169 10.32 36.886 9.892 36.498 C 9.503 36.069 9.221 35.387 9.192 34.809 L 9.192 34.179 C 9.191 34.179 9.191 34.179 9.191 34.179 C 8.982 34.096 8.782 34.009 8.62 33.938 L 8.166 34.391 C 7.737 34.775 7.058 35.082 6.482 35.082 C 5.907 35.082 5.225 34.772 4.796 34.388 L 3.117 32.709 C 2.734 32.28 2.428 31.601 2.428 31.026 C 2.428 30.451 2.739 29.768 3.123 29.338 L 3.574 28.89 C 3.486 28.698 3.405 28.493 3.337 28.322 L 2.707 28.322 C 2.13 28.293 1.448 28.01 1.019 27.622 C 0.631 27.193 0.348 26.511 0.319 25.934 L 0.319 23.566 C 0.348 22.989 0.631 22.308 1.019 21.88 C 1.447 21.492 2.129 21.209 2.706 21.179 L 3.342 21.179 C 3.415 20.991 3.496 20.796 3.579 20.612 L 3.127 20.16 C 2.741 19.731 2.433 19.05 2.433 18.474 C 2.433 17.897 2.743 17.216 3.129 16.786 L 4.808 15.104 C 5.237 14.72 5.915 14.414 6.49 14.414 C 7.065 14.414 7.748 14.724 8.177 15.108 L 8.627 15.558 C 8.818 15.47 9.024 15.389 9.195 15.321 L 9.195 14.69 C 9.224 14.112 9.486 13.411 9.895 13.002 C 10.303 12.594 11.005 12.331 11.583 12.302 L 13.952 12.302 C 14.529 12.332 15.229 12.596 15.637 13.004 C 16.044 13.413 16.306 14.114 16.335 14.691 L 16.335 15.322 C 16.544 15.406 16.743 15.492 16.904 15.563 L 17.357 15.11 C 17.787 14.725 18.466 14.418 19.043 14.418 C 19.619 14.418 20.301 14.728 20.731 15.113 L 22.41 16.791 C 22.794 17.219 23.073 17.897 23.102 18.472 C 23.075 19.047 22.794 19.731 22.411 20.161 L 21.961 20.611 C 22.048 20.802 22.13 21.007 22.198 21.179 L 22.827 21.179 C 23.405 21.208 24.106 21.47 24.514 21.879 C 24.923 22.287 25.185 22.989 25.214 23.567 L 25.214 25.934 C 25.185 26.512 24.902 27.194 24.513 27.622 C 24.084 28.011 23.403 28.293 22.825 28.322 L 23.409 28.293 L 23.399 28.33 Z"></path>
    <path d="M 13.021 28.266 C 13.021 28.266 13.021 28.266 13.021 28.266 C 13.021 28.266 13.021 28.266 13.021 28.266 Z M 13.246 28.239 L 13.298 28.231 L 13.308 28.229 C 13.646 28.177 13.931 28.093 14.235 27.953 L 14.276 27.932 C 14.329 27.909 14.406 27.87 14.488 27.828 C 14.979 27.569 15.321 27.259 15.636 26.803 C 15.968 26.357 16.154 25.915 16.241 25.368 C 16.265 25.234 16.276 25.142 16.285 25.025 L 16.285 24.921 L 16.291 24.932 C 16.291 24.933 16.291 24.933 16.291 24.934 C 16.291 24.931 16.29 24.923 16.29 24.904 C 16.296 24.783 16.295 24.649 16.287 24.527 L 16.285 24.429 C 16.282 24.39 16.28 24.373 16.28 24.345 C 16.267 24.199 16.252 24.152 16.222 24.012 C 16.215 23.983 16.211 23.966 16.202 23.936 C 16.197 23.918 16.19 23.893 16.179 23.852 C 16.152 23.746 16.13 23.671 16.097 23.581 L 16.08 23.532 C 16.066 23.493 16.054 23.46 16.039 23.42 C 15.986 23.29 15.939 23.192 15.873 23.072 L 15.792 22.94 C 15.753 22.874 15.705 22.8 15.639 22.704 C 15.603 22.654 15.574 22.615 15.537 22.57 C 15.49 22.509 15.437 22.448 15.365 22.37 L 15.316 22.315 C 15.295 22.29 15.279 22.273 15.265 22.258 C 15.173 22.171 15.093 22.104 14.985 22.024 C 14.966 22.007 14.917 21.971 14.877 21.942 L 14.861 21.931 C 14.787 21.874 14.695 21.813 14.611 21.76 L 14.592 21.749 C 14.56 21.727 14.522 21.703 14.498 21.69 C 14.244 21.543 14.017 21.446 13.739 21.368 L 13.669 21.35 L 13.62 21.337 C 13.512 21.31 13.418 21.29 13.302 21.272 L 13.258 21.265 L 13.175 21.253 C 13.026 21.234 12.902 21.225 12.75 21.225 C 12.434 21.223 12.171 21.257 11.864 21.337 L 11.89 21.33 C 11.084 21.519 10.442 21.931 9.953 22.598 C 9.432 23.242 9.196 23.934 9.218 24.761 C 9.2 25.588 9.438 26.28 9.962 26.92 C 10.453 27.586 11.065 27.987 11.872 28.172 C 12.013 28.208 12.13 28.23 12.276 28.248 L 12.342 28.256 C 12.465 28.271 12.574 28.278 12.698 28.278 L 12.816 28.278 C 12.892 28.277 13.006 28.264 13.108 28.256 L 13.108 28.256 C 13.157 28.25 13.214 28.244 13.246 28.239 Z M 13.402 30.657 C 13.463 30.644 13.423 30.648 13.312 30.663 L 13.351 30.66 C 13.142 30.681 12.938 30.692 12.767 30.692 C 12.684 30.692 12.59 30.684 12.532 30.679 C 12.485 30.673 12.458 30.67 12.469 30.673 L 12.395 30.67 C 12.282 30.665 12.137 30.657 12.002 30.642 C 11.78 30.612 11.528 30.562 11.313 30.51 L 11.279 30.505 L 11.265 30.501 C 10.041 30.161 8.837 29.39 8.059 28.383 C 7.282 27.378 6.839 26.018 6.82 24.748 C 6.84 23.476 7.302 22.13 8.063 21.113 C 8.857 20.12 10.056 19.334 11.282 18.996 C 11.486 18.947 11.709 18.905 11.915 18.877 C 11.998 18.865 12.072 18.857 12.137 18.85 C 12.265 18.837 12.407 18.828 12.551 18.824 C 12.561 18.823 12.575 18.822 12.596 18.82 C 12.639 18.816 12.707 18.813 12.763 18.812 C 13.994 18.833 15.312 19.278 16.31 19.998 L 16.404 20.07 C 16.494 20.14 16.588 20.219 16.656 20.276 C 16.722 20.334 16.784 20.391 16.84 20.443 L 16.886 20.486 C 16.921 20.52 16.959 20.556 17.009 20.606 C 17.098 20.697 17.197 20.806 17.293 20.918 L 17.276 20.903 C 17.3 20.927 17.311 20.935 17.35 20.986 C 17.568 21.249 17.762 21.528 17.929 21.823 L 17.957 21.868 L 17.973 21.905 C 18.076 22.096 18.185 22.33 18.268 22.535 C 18.299 22.616 18.34 22.729 18.37 22.814 C 18.404 22.922 18.446 23.048 18.484 23.183 L 18.503 23.25 C 18.522 23.324 18.545 23.408 18.566 23.505 C 18.6 23.651 18.629 23.826 18.653 24.015 C 18.669 24.154 18.682 24.316 18.689 24.481 C 18.691 24.505 18.692 24.523 18.694 24.564 C 18.699 24.64 18.701 24.701 18.701 24.753 C 18.701 24.767 18.701 24.774 18.701 24.793 C 18.701 24.813 18.701 24.848 18.701 24.866 C 18.698 24.976 18.692 25.088 18.682 25.212 C 18.672 25.356 18.653 25.5 18.637 25.605 C 18.496 26.526 18.147 27.479 17.661 28.273 C 17.55 28.446 17.389 28.642 17.242 28.785 C 16.763 29.235 16.158 29.666 15.58 29.981 L 15.574 29.984 C 15.469 30.04 15.369 30.087 15.27 30.131 L 15.209 30.159 C 15.148 30.189 15.08 30.221 14.996 30.254 C 14.905 30.289 14.807 30.324 14.723 30.353 L 14.691 30.364 C 14.627 30.387 14.544 30.417 14.451 30.444 C 14.324 30.482 14.194 30.514 14.103 30.535 L 14.034 30.551 C 14.017 30.554 13.991 30.561 13.919 30.576 C 13.789 30.602 13.649 30.625 13.508 30.642 L 13.574 30.62 Z"></path>
    <path d="M34.658 20.4718C35.0923 20.4712 35.5087 20.2984 35.8158 19.9913C36.1229 19.6842 36.2957 19.2678 36.2963 18.8335V15.2838C36.2959 14.8494 36.1232 14.4328 35.8161 14.1256C35.5089 13.8183 35.0925 13.6454 34.658 13.6448H32.7972C32.6477 13.6469 32.5014 13.6015 32.3793 13.5154C32.2571 13.4292 32.1654 13.3065 32.1172 13.165C31.9355 12.6203 31.7158 12.089 31.4596 11.5752C31.393 11.4402 31.3706 11.2877 31.3957 11.1393C31.4207 10.9909 31.4919 10.8541 31.599 10.7484L32.9193 9.43031C33.2247 9.12298 33.3961 8.70732 33.3961 8.27406C33.3961 7.84081 33.2247 7.42515 32.9193 7.11781L30.4023 4.60297C30.0948 4.29649 29.6784 4.1244 29.2443 4.1244C28.8101 4.1244 28.3937 4.29649 28.0862 4.60297L26.7673 5.92109C26.662 6.02785 26.5259 6.09882 26.378 6.12398C26.2302 6.14913 26.0782 6.12721 25.9435 6.06129C25.4298 5.80381 24.8985 5.58285 24.3537 5.40006C24.2115 5.3517 24.0883 5.25972 24.0015 5.13723C23.9147 5.01475 23.8688 4.86799 23.8702 4.71787V2.85848C23.8696 2.42416 23.6969 2.00779 23.3897 1.70068C23.0826 1.39357 22.6663 1.22079 22.232 1.22021H18.683C18.2487 1.22079 17.8323 1.39357 17.5252 1.70068C17.2181 2.00779 17.0453 2.42416 17.0447 2.85848V4.71932C17.046 4.86863 17.0004 5.01457 16.9143 5.13657C16.8282 5.25857 16.706 5.35048 16.5649 5.39934C16.0201 5.58195 15.4888 5.80267 14.975 6.05984C14.8402 6.12686 14.6875 6.14945 14.539 6.1244C14.3905 6.09934 14.2537 6.02792 14.1483 5.92037L12.8295 4.60152C12.5211 4.2964 12.1048 4.12526 11.6711 4.12526C11.2373 4.12526 10.821 4.2964 10.5126 4.60152L8.00285 7.11275C7.69602 7.42005 7.52368 7.83656 7.52368 8.27081C7.52368 8.70507 7.69602 9.12157 8.00285 9.42887L9.94318 11.3728C9.98555 11.4144 10.0359 11.447 10.0911 11.4688C10.1464 11.4905 10.2054 11.5009 10.2648 11.4993C10.3538 11.4988 10.4407 11.4722 10.5147 11.4227C10.5888 11.3733 10.6467 11.3032 10.6812 11.2212C10.7158 11.1391 10.7255 11.0488 10.7091 10.9612C10.6928 10.8737 10.6511 10.793 10.5892 10.7289L8.64601 8.78859C8.50965 8.65178 8.43309 8.4665 8.43309 8.27334C8.43309 8.08018 8.50965 7.8949 8.64601 7.75809L11.1572 5.24758C11.2939 5.11126 11.4791 5.03471 11.6721 5.03471C11.8652 5.03471 12.0503 5.11126 12.187 5.24758L13.5088 6.5657C13.749 6.80819 14.0596 6.96858 14.3964 7.024C14.7332 7.07941 15.0788 7.02701 15.3841 6.87428C15.8584 6.63672 16.3489 6.43267 16.8518 6.26363C17.1746 6.15475 17.4548 5.94694 17.6528 5.66972C17.8507 5.3925 17.9563 5.05996 17.9546 4.71932V2.85848C17.9547 2.66534 18.0315 2.48017 18.1681 2.3436C18.3047 2.20704 18.4899 2.13023 18.683 2.13004H22.2334C22.4264 2.13042 22.6114 2.20731 22.7478 2.34386C22.8842 2.48041 22.9609 2.66547 22.9611 2.85848V4.71932C22.9595 5.06002 23.0652 5.39258 23.2633 5.66979C23.4614 5.947 23.7418 6.15477 24.0646 6.26363C24.5676 6.43254 25.058 6.63659 25.5323 6.87428C25.8377 7.02596 26.183 7.07779 26.5194 7.02241C26.8558 6.96703 27.1663 6.80726 27.4069 6.5657L28.7279 5.24758C28.8646 5.11126 29.0498 5.03471 29.2428 5.03471C29.4358 5.03471 29.621 5.11126 29.7577 5.24758L32.2689 7.75809C32.4053 7.8949 32.4819 8.08018 32.4819 8.27334C32.4819 8.4665 32.4053 8.65178 32.2689 8.78859L30.9501 10.1103C30.7079 10.3507 30.5477 10.6613 30.4923 10.998C30.4369 11.3347 30.4891 11.6803 30.6415 11.9856C30.8792 12.46 31.0832 12.9504 31.2522 13.4533C31.3607 13.7749 31.5675 14.0542 31.8432 14.2521C32.119 14.4499 32.4499 14.5563 32.7892 14.5561H34.6573C34.8504 14.5563 35.0356 14.6331 35.1722 14.7697C35.3087 14.9062 35.3856 15.0914 35.3857 15.2846V18.8335C35.3856 19.0267 35.3087 19.2118 35.1722 19.3484C35.0356 19.485 34.8504 19.5618 34.6573 19.562H32.7972C32.4568 19.5611 32.1246 19.667 31.8476 19.8648C31.5705 20.0627 31.3625 20.3424 31.2529 20.6647C31.084 21.1679 30.8799 21.6586 30.6422 22.1332C30.4902 22.4383 30.4381 22.7836 30.4935 23.12C30.5489 23.4564 30.7089 23.7668 30.9508 24.007L32.2689 25.3295C32.4052 25.4662 32.4818 25.6513 32.4818 25.8444C32.4818 26.0374 32.4052 26.2226 32.2689 26.3593L29.757 28.8705C29.6202 29.0066 29.4351 29.0831 29.2421 29.0831C29.0491 29.0831 28.864 29.0066 28.7272 28.8705L26.7847 26.9273C26.7432 26.8838 26.6935 26.849 26.6384 26.8251C26.5833 26.8011 26.5239 26.7885 26.4638 26.7878H26.4559C26.3658 26.7869 26.2776 26.8128 26.2022 26.862C26.1269 26.9113 26.0678 26.9819 26.0326 27.0647C25.9973 27.1475 25.9874 27.239 26.0041 27.3274C26.0208 27.4159 26.0633 27.4975 26.1263 27.5618L26.1386 27.574L28.0833 29.5151C28.3908 29.8216 28.8072 29.9937 29.2414 29.9937C29.6755 29.9937 30.0919 29.8216 30.3994 29.5151L32.9106 27.0046C33.2172 26.697 33.3893 26.2804 33.3893 25.8462C33.3893 25.4119 33.2172 24.9954 32.9106 24.6878L31.5925 23.3675C31.4857 23.2622 31.4146 23.126 31.3895 22.9782C31.3643 22.8303 31.3863 22.6783 31.4523 22.5436C31.71 22.0299 31.9309 21.4987 32.1136 20.9538C32.163 20.8123 32.2552 20.6897 32.3775 20.603C32.4997 20.5162 32.6459 20.4696 32.7957 20.4696L34.658 20.4718Z" stroke-width="1.5" stroke-miterlimit="10"></path>
    <path d="M 33.442 24.158 C 33.829 24.587 34.139 25.269 34.139 25.846 C 34.139 26.424 33.828 27.106 33.441 27.535 L 30.929 30.046 C 30.5 30.434 29.819 30.744 29.241 30.744 C 28.664 30.744 27.982 30.433 27.553 30.046 L 25.61 28.106 L 25.591 28.087 C 25.463 27.933 25.32 27.659 25.267 27.467 C 25.246 27.268 25.279 26.96 25.343 26.771 C 25.435 26.594 25.635 26.356 25.792 26.234 C 25.967 26.139 26.256 26.052 26.456 26.038 L 26.473 26.038 C 26.606 26.047 26.81 26.09 26.937 26.137 C 27.058 26.198 27.217 26.305 27.315 26.397 L 29.242 28.325 L 31.723 25.844 L 30.422 24.539 C 30.111 24.205 29.828 23.692 29.753 23.242 C 29.679 22.792 29.784 22.214 29.972 21.797 C 30.198 21.347 30.383 20.902 30.543 20.423 C 30.707 19.998 31.052 19.534 31.412 19.254 C 31.793 19.005 32.342 18.829 32.797 18.812 L 34.636 18.812 L 34.636 15.306 L 32.79 15.306 C 32.335 15.288 31.785 15.111 31.406 14.861 C 31.047 14.582 30.704 14.117 30.541 13.692 C 30.381 13.214 30.197 12.771 29.97 12.321 C 29.783 11.904 29.678 11.327 29.752 10.876 C 29.826 10.426 30.108 9.915 30.419 9.581 L 31.724 8.273 L 29.243 5.793 L 27.938 7.095 C 27.604 7.405 27.091 7.688 26.641 7.762 C 26.191 7.837 25.613 7.731 25.196 7.545 C 24.746 7.318 24.303 7.134 23.825 6.974 C 23.399 6.811 22.918 6.477 22.653 6.106 C 22.388 5.735 22.227 5.175 22.211 4.719 L 22.211 2.88 L 18.705 2.88 L 18.705 4.716 C 18.689 5.172 18.513 5.724 18.263 6.106 C 17.983 6.466 17.517 6.812 17.091 6.975 C 16.612 7.134 16.17 7.318 15.72 7.545 C 15.303 7.733 14.728 7.82 14.275 7.764 C 13.827 7.672 13.314 7.409 12.979 7.097 L 11.672 5.793 L 9.191 8.273 L 11.129 10.208 C 11.254 10.36 11.394 10.633 11.446 10.824 C 11.467 11.02 11.434 11.325 11.372 11.512 C 11.281 11.688 11.086 11.924 10.931 12.046 C 10.758 12.143 10.472 12.23 10.276 12.249 C 10.141 12.243 9.943 12.208 9.816 12.166 C 9.694 12.111 9.514 11.991 9.412 11.903 L 7.472 9.959 C 7.084 9.53 6.774 8.848 6.774 8.271 C 6.774 7.693 7.084 7.012 7.472 6.583 L 9.985 4.068 C 10.415 3.683 11.095 3.375 11.671 3.375 C 12.247 3.375 12.93 3.686 13.36 4.071 L 14.665 5.376 C 15.188 5.117 15.742 4.887 16.295 4.699 L 16.295 2.858 C 16.324 2.28 16.586 1.579 16.995 1.17 C 17.403 0.762 18.105 0.499 18.683 0.47 L 22.233 0.47 C 22.811 0.499 23.491 0.782 23.92 1.17 C 24.308 1.599 24.591 2.281 24.62 2.859 L 24.62 4.699 C 25.173 4.886 25.729 5.117 26.251 5.377 L 27.557 4.072 C 27.986 3.684 28.667 3.374 29.244 3.374 C 29.822 3.374 30.503 3.685 30.932 4.072 L 33.451 6.589 C 33.837 7.018 34.146 7.698 34.146 8.274 C 34.146 8.85 33.835 9.532 33.449 9.961 L 32.143 11.265 C 32.401 11.787 32.631 12.343 32.818 12.895 L 34.659 12.895 C 35.237 12.924 35.918 13.207 36.346 13.595 C 36.735 14.024 37.017 14.706 37.046 15.284 L 37.046 18.835 C 37.017 19.412 36.755 20.113 36.346 20.522 C 35.938 20.93 35.235 21.193 34.657 21.222 L 32.815 21.22 C 32.628 21.772 32.397 22.329 32.137 22.851 Z M 32.796 19.72 C 32.532 19.737 32.169 19.853 31.943 19.991 C 31.738 20.159 31.506 20.472 31.403 20.715 C 31.229 21.236 31.025 21.724 30.779 22.214 C 30.678 22.46 30.624 22.839 30.65 23.104 C 30.713 23.363 30.886 23.699 31.062 23.897 L 32.379 25.217 C 32.605 25.403 32.639 25.555 32.639 25.846 C 32.639 26.137 32.606 26.288 32.38 26.474 L 29.87 28.984 C 29.684 29.209 29.532 29.244 29.241 29.244 C 28.95 29.244 28.799 29.21 28.613 28.984 L 26.667 27.042 L 26.662 27.037 C 26.664 27.062 26.722 27.173 26.741 27.188 C 26.729 27.21 26.715 27.333 26.722 27.358 C 26.699 27.371 26.619 27.466 26.612 27.49 C 26.588 27.487 26.475 27.522 26.456 27.538 L 26.455 27.538 C 26.442 27.53 26.358 27.512 26.34 27.513 C 26.327 27.499 26.269 27.462 26.254 27.458 L 28.198 29.402 C 28.456 29.619 28.906 29.833 29.242 29.833 C 29.578 29.833 30.029 29.618 30.287 29.401 L 32.8 26.889 C 33.017 26.631 33.232 26.181 33.232 25.844 C 33.232 25.508 33.017 25.058 32.8 24.8 L 31.479 23.475 C 31.306 23.329 31.27 23.221 31.234 22.998 C 31.197 22.776 31.197 22.661 31.314 22.468 C 31.562 21.97 31.785 21.434 31.963 20.906 C 32.018 20.687 32.089 20.592 32.283 20.475 C 32.456 20.329 32.572 20.293 32.797 20.312 L 34.658 20.312 C 34.994 20.283 35.445 20.096 35.703 19.879 C 35.92 19.621 36.107 19.17 36.136 18.833 L 36.136 15.284 C 36.107 14.947 35.94 14.477 35.703 14.239 C 35.465 14.001 34.994 13.835 34.657 13.806 L 32.789 13.806 C 32.565 13.824 32.452 13.788 32.28 13.643 C 32.087 13.526 32.017 13.432 31.963 13.214 C 31.785 12.686 31.561 12.149 31.313 11.651 C 31.195 11.457 31.196 11.343 31.232 11.12 C 31.269 10.897 31.308 10.786 31.481 10.64 L 32.8 9.318 C 33.017 9.06 33.232 8.61 33.232 8.273 C 33.232 7.937 33.017 7.486 32.799 7.228 L 30.287 4.717 C 30.029 4.499 29.579 4.285 29.243 4.285 C 28.907 4.285 28.456 4.499 28.198 4.717 L 26.876 6.036 C 26.729 6.209 26.62 6.246 26.398 6.282 C 26.175 6.319 26.063 6.32 25.868 6.204 C 25.37 5.955 24.832 5.731 24.304 5.553 C 24.085 5.498 24.005 5.417 23.874 5.234 C 23.743 5.05 23.692 4.945 23.711 4.719 L 23.711 2.858 C 23.682 2.521 23.516 2.052 23.278 1.814 C 23.041 1.576 22.57 1.409 22.233 1.38 L 18.682 1.38 C 18.346 1.409 17.896 1.595 17.638 1.813 C 17.42 2.071 17.233 2.522 17.205 2.858 L 17.205 4.723 C 17.224 4.948 17.188 5.061 17.042 5.234 C 16.926 5.428 16.831 5.498 16.612 5.553 C 16.085 5.731 15.547 5.955 15.049 6.204 C 14.855 6.321 14.738 6.339 14.518 6.284 C 14.293 6.265 14.184 6.208 14.038 6.035 L 12.717 4.717 C 12.458 4.499 12.009 4.285 11.672 4.285 C 11.336 4.285 10.885 4.5 10.627 4.717 L 8.115 7.229 C 7.898 7.487 7.683 7.937 7.683 8.273 C 7.683 8.61 7.899 9.061 8.116 9.319 L 10.05 11.25 C 10.048 11.226 9.992 11.116 9.972 11.099 C 9.984 11.076 9.997 10.954 9.99 10.93 C 10.012 10.919 10.09 10.824 10.098 10.799 C 10.125 10.801 10.226 10.77 10.255 10.753 C 10.284 10.761 10.35 10.773 10.367 10.771 C 10.377 10.783 10.458 10.837 10.474 10.843 L 8.534 8.899 C 8.308 8.713 8.274 8.562 8.274 8.271 C 8.274 7.98 8.308 7.829 8.533 7.643 L 11.04 5.135 C 11.227 4.91 11.38 4.875 11.671 4.875 C 11.962 4.875 12.112 4.907 12.299 5.132 L 13.613 6.445 C 13.812 6.623 14.155 6.802 14.414 6.864 C 14.68 6.89 15.064 6.833 15.311 6.731 C 15.801 6.484 16.29 6.281 16.81 6.108 C 17.054 6.005 17.375 5.785 17.527 5.569 C 17.68 5.353 17.779 4.984 17.795 4.719 L 17.795 2.86 C 17.767 2.568 17.85 2.437 18.056 2.231 C 18.261 2.025 18.392 1.942 18.683 1.97 L 22.231 1.97 C 22.522 1.942 22.674 2.005 22.859 2.231 C 23.085 2.417 23.148 2.567 23.12 2.858 L 23.12 4.711 C 23.136 4.976 23.251 5.344 23.39 5.571 C 23.558 5.777 23.869 6.008 24.115 6.111 C 24.635 6.285 25.124 6.488 25.614 6.735 C 25.86 6.835 26.24 6.89 26.504 6.863 C 26.762 6.801 27.099 6.628 27.298 6.452 L 28.616 5.134 C 28.802 4.909 28.953 4.874 29.244 4.874 C 29.535 4.874 29.686 4.908 29.872 5.134 L 32.387 7.646 C 32.612 7.832 32.646 7.984 32.646 8.274 C 32.646 8.564 32.614 8.714 32.389 8.9 L 31.072 10.215 C 30.896 10.414 30.718 10.755 30.656 11.014 C 30.63 11.28 30.687 11.663 30.788 11.91 C 31.034 12.4 31.235 12.887 31.407 13.407 C 31.51 13.652 31.741 13.96 31.947 14.128 C 32.174 14.266 32.531 14.38 32.797 14.395 L 34.657 14.395 C 34.948 14.367 35.1 14.43 35.286 14.656 C 35.512 14.842 35.575 14.993 35.546 15.284 L 35.546 18.832 C 35.574 19.124 35.491 19.255 35.286 19.461 C 35.08 19.667 34.95 19.75 34.659 19.722 Z"></path>
    <path d="M25.4637 22.5408C25.5841 22.5425 25.7004 22.4968 25.7875 22.4136L25.7976 22.4035C26.4993 21.7021 27.056 20.8694 27.4358 19.9529C27.8157 19.0364 28.0114 18.0541 28.0116 17.062C28.0118 16.0699 27.8167 15.0874 27.4372 14.1707C27.0578 13.2541 26.5015 12.4211 25.8001 11.7194C25.0988 11.0177 24.2661 10.461 23.3495 10.0811C22.433 9.70125 21.4507 9.50561 20.4586 9.50537C19.4665 9.50514 18.484 9.70032 17.5674 10.0798C16.6507 10.4592 15.8177 11.0155 15.116 11.7169C15.031 11.8024 14.9835 11.9183 14.9839 12.0389C14.9843 12.1595 15.0326 12.275 15.1182 12.36C15.2038 12.445 15.3196 12.4925 15.4402 12.4921C15.5608 12.4917 15.6763 12.4434 15.7613 12.3579C16.3725 11.7354 17.1011 11.2403 17.9049 10.9013C18.7087 10.5623 19.5718 10.3861 20.4442 10.3828H20.4897C21.7995 10.3845 23.0796 10.7729 24.1694 11.4995C25.2592 12.226 26.1101 13.2583 26.6154 14.4667C27.1206 15.6751 27.2577 17.0058 27.0093 18.2918C26.761 19.5779 26.1383 20.7619 25.2195 21.6953L25.1559 21.7582C25.1127 21.7996 25.0782 21.8492 25.0543 21.904C25.0303 21.9589 25.0175 22.0179 25.0164 22.0777C25.0153 22.1375 25.0261 22.197 25.048 22.2526C25.07 22.3083 25.1027 22.3591 25.1443 22.4021C25.1856 22.4454 25.2351 22.48 25.29 22.5038C25.3448 22.5276 25.4039 22.5402 25.4637 22.5408Z" stroke-width="1.5" stroke-miterlimit="10"></path>
    <path d="M 24.991 23.192 C 24.871 23.131 24.702 23.013 24.604 22.922 C 24.516 22.821 24.406 22.648 24.35 22.527 C 24.308 22.401 24.264 22.197 24.267 22.064 C 24.269 21.931 24.32 21.73 24.367 21.604 C 24.427 21.485 24.537 21.323 24.629 21.225 L 24.685 21.169 C 25.539 20.324 26.061 19.332 26.273 18.15 C 26.517 16.973 26.402 15.858 25.923 14.756 C 25.475 13.641 24.762 12.777 23.753 12.124 C 22.763 11.444 21.691 11.118 20.49 11.133 L 20.447 11.133 C 19.648 11.129 18.932 11.282 18.196 11.592 C 17.46 11.903 16.848 12.312 16.293 12.887 C 16.087 13.054 15.707 13.241 15.443 13.242 C 15.179 13.243 14.777 13.078 14.59 12.892 C 14.402 12.706 14.235 12.306 14.234 12.041 C 14.233 11.777 14.42 11.394 14.586 11.186 C 15.344 10.438 16.299 9.801 17.281 9.387 C 18.268 8.986 19.394 8.762 20.459 8.755 C 21.524 8.763 22.65 8.987 23.637 9.388 C 24.618 9.803 25.572 10.441 26.331 11.189 C 27.079 11.948 27.716 12.902 28.13 13.884 C 28.531 14.871 28.762 15.997 28.762 17.062 C 28.761 18.127 28.53 19.253 28.129 20.24 C 27.714 21.221 27.076 22.176 26.328 22.934 L 26.306 22.956 C 26.097 23.117 25.717 23.266 25.454 23.291 C 25.32 23.282 25.117 23.238 24.991 23.192 Z M 25.588 21.816 C 25.6 21.829 25.665 21.874 25.684 21.883 C 25.692 21.903 25.734 21.968 25.746 21.978 C 25.744 21.993 25.767 22.078 25.766 22.091 C 25.766 22.104 25.741 22.187 25.741 22.204 C 25.729 22.213 25.688 22.276 25.683 22.291 L 25.754 22.221 C 26.737 21.2 27.461 19.824 27.746 18.434 C 27.999 17.038 27.84 15.492 27.307 14.177 C 26.745 12.875 25.757 11.675 24.585 10.875 C 23.396 10.102 21.908 9.651 20.49 9.633 L 20.441 9.633 C 19.495 9.644 18.485 9.843 17.613 10.21 C 16.742 10.578 15.897 11.161 15.229 11.829 C 15.266 11.833 15.415 11.742 15.438 11.742 C 15.461 11.742 15.63 11.812 15.647 11.828 C 15.663 11.844 15.734 12.013 15.734 12.036 C 15.734 12.059 15.644 12.209 15.648 12.246 C 16.292 11.592 17.002 11.118 17.854 10.773 C 18.701 10.415 19.539 10.248 20.458 10.255 C 21.377 10.248 22.216 10.415 23.062 10.774 C 23.914 11.119 24.625 11.595 25.27 12.25 C 25.924 12.894 26.399 13.606 26.744 14.458 C 27.102 15.304 27.262 16.143 27.262 17.062 C 27.261 17.981 27.101 18.82 26.743 19.666 C 26.398 20.517 25.922 21.229 25.267 21.873 L 25.269 21.871 C 25.304 21.877 25.449 21.82 25.473 21.792 C 25.493 21.8 25.572 21.817 25.588 21.816 Z"></path>
  </g>
</svg>